<?xml version="1.0" encoding="utf-8" standalone="no"?>
<!DOCTYPE svg PUBLIC "-//W3C//DTD SVG 1.1//EN"
  "http://www.w3.org/Graphics/SVG/1.1/DTD/svg11.dtd">
<!-- Created with matplotlib (https://matplotlib.org/) -->
<svg height="864pt" version="1.1" viewBox="0 0 864 864" width="864pt" xmlns="http://www.w3.org/2000/svg" xmlns:xlink="http://www.w3.org/1999/xlink">
 <defs>
  <style type="text/css">
*{stroke-linecap:butt;stroke-linejoin:round;}
  </style>
 </defs>
 <g id="figure_1">
  <g id="patch_1">
   <path d="M 0 864 
L 864 864 
L 864 0 
L 0 0 
z
" style="fill:#ffffff;"/>
  </g>
  <g id="axes_1">
   <g id="patch_2">
    <path d="M 108 245.488696 
L 777.6 245.488696 
L 777.6 103.68 
L 108 103.68 
z
" style="fill:#ffffff;"/>
   </g>
   <g id="LineCollection_1">
    <path clip-path="url(#pf9c4bbdca6)" d="M 108 175.86486 
L 331.2 175.86486 
" style="fill:none;stroke:#ff0000;stroke-width:1.5;"/>
   </g>
   <g id="LineCollection_2">
    <path clip-path="url(#pf9c4bbdca6)" d="M 331.2 175.86486 
L 554.4 175.86486 
" style="fill:none;stroke:#ff0000;stroke-width:1.5;"/>
   </g>
   <g id="LineCollection_3">
    <path clip-path="url(#pf9c4bbdca6)" d="M 554.4 175.86486 
L 777.6 175.86486 
" style="fill:none;stroke:#ff0000;stroke-width:1.5;"/>
   </g>
   <g id="patch_3">
    <path clip-path="url(#pf9c4bbdca6)" d="M 163.8 245.488696 
L 275.4 245.488696 
L 275.4 195.953072 
L 163.8 195.953072 
z
" style="fill:#dd1c77;"/>
   </g>
   <g id="patch_4">
    <path clip-path="url(#pf9c4bbdca6)" d="M 387 245.488696 
L 498.6 245.488696 
L 498.6 195.953072 
L 387 195.953072 
z
" style="fill:#dd1c77;"/>
   </g>
   <g id="patch_5">
    <path clip-path="url(#pf9c4bbdca6)" d="M 610.2 245.488696 
L 721.8 245.488696 
L 721.8 195.953072 
L 610.2 195.953072 
z
" style="fill:#dd1c77;"/>
   </g>
   <g id="patch_6">
    <path clip-path="url(#pf9c4bbdca6)" d="M 163.8 245.488696 
L 275.4 245.488696 
L 275.4 195.999035 
L 163.8 195.999035 
z
" style="fill:#c994c7;"/>
   </g>
   <g id="patch_7">
    <path clip-path="url(#pf9c4bbdca6)" d="M 387 245.488696 
L 498.6 245.488696 
L 498.6 195.999035 
L 387 195.999035 
z
" style="fill:#c994c7;"/>
   </g>
   <g id="patch_8">
    <path clip-path="url(#pf9c4bbdca6)" d="M 610.2 245.488696 
L 721.8 245.488696 
L 721.8 195.999035 
L 610.2 195.999035 
z
" style="fill:#c994c7;"/>
   </g>
   <g id="patch_9">
    <path clip-path="url(#pf9c4bbdca6)" d="M 163.8 245.488696 
L 275.4 245.488696 
L 275.4 196.020786 
L 163.8 196.020786 
z
" style="fill:#e7e1ef;"/>
   </g>
   <g id="patch_10">
    <path clip-path="url(#pf9c4bbdca6)" d="M 387 245.488696 
L 498.6 245.488696 
L 498.6 196.020786 
L 387 196.020786 
z
" style="fill:#e7e1ef;"/>
   </g>
   <g id="patch_11">
    <path clip-path="url(#pf9c4bbdca6)" d="M 610.2 245.488696 
L 721.8 245.488696 
L 721.8 196.020786 
L 610.2 196.020786 
z
" style="fill:#e7e1ef;"/>
   </g>
   <g id="patch_12">
    <path clip-path="url(#pf9c4bbdca6)" d="M 163.8 245.488696 
L 275.4 245.488696 
L 275.4 196.938609 
L 163.8 196.938609 
z
" style="fill:#808080;"/>
   </g>
   <g id="patch_13">
    <path clip-path="url(#pf9c4bbdca6)" d="M 387 245.488696 
L 498.6 245.488696 
L 498.6 196.938609 
L 387 196.938609 
z
" style="fill:#808080;"/>
   </g>
   <g id="patch_14">
    <path clip-path="url(#pf9c4bbdca6)" d="M 610.2 245.488696 
L 721.8 245.488696 
L 721.8 196.938609 
L 610.2 196.938609 
z
" style="fill:#808080;"/>
   </g>
   <g id="matplotlib.axis_1">
    <g id="xtick_1">
     <g id="line2d_1">
      <path clip-path="url(#pf9c4bbdca6)" d="M 108 245.488696 
L 108 103.68 
" style="fill:none;stroke:#b0b0b0;stroke-linecap:square;stroke-width:0.8;"/>
     </g>
     <g id="line2d_2">
      <defs>
       <path d="M 0 0 
L 0 3.5 
" id="ma7f058cb78" style="stroke:#000000;stroke-width:0.8;"/>
      </defs>
      <g>
       <use style="stroke:#000000;stroke-width:0.8;" x="108" xlink:href="#ma7f058cb78" y="245.488696"/>
      </g>
     </g>
    </g>
    <g id="xtick_2">
     <g id="line2d_3">
      <path clip-path="url(#pf9c4bbdca6)" d="M 331.2 245.488696 
L 331.2 103.68 
" style="fill:none;stroke:#b0b0b0;stroke-linecap:square;stroke-width:0.8;"/>
     </g>
     <g id="line2d_4">
      <g>
       <use style="stroke:#000000;stroke-width:0.8;" x="331.2" xlink:href="#ma7f058cb78" y="245.488696"/>
      </g>
     </g>
    </g>
    <g id="xtick_3">
     <g id="line2d_5">
      <path clip-path="url(#pf9c4bbdca6)" d="M 554.4 245.488696 
L 554.4 103.68 
" style="fill:none;stroke:#b0b0b0;stroke-linecap:square;stroke-width:0.8;"/>
     </g>
     <g id="line2d_6">
      <g>
       <use style="stroke:#000000;stroke-width:0.8;" x="554.4" xlink:href="#ma7f058cb78" y="245.488696"/>
      </g>
     </g>
    </g>
   </g>
   <g id="matplotlib.axis_2">
    <g id="ytick_1">
     <g id="line2d_7">
      <defs>
       <path d="M 0 0 
L -3.5 0 
" id="m0d2af0e710" style="stroke:#000000;stroke-width:0.8;"/>
      </defs>
      <g>
       <use style="stroke:#000000;stroke-width:0.8;" x="108" xlink:href="#m0d2af0e710" y="245.488696"/>
      </g>
     </g>
     <g id="text_1">
      <!-- 0.0 -->
      <defs>
       <path d="M 31.78125 66.40625 
Q 24.171875 66.40625 20.328125 58.90625 
Q 16.5 51.421875 16.5 36.375 
Q 16.5 21.390625 20.328125 13.890625 
Q 24.171875 6.390625 31.78125 6.390625 
Q 39.453125 6.390625 43.28125 13.890625 
Q 47.125 21.390625 47.125 36.375 
Q 47.125 51.421875 43.28125 58.90625 
Q 39.453125 66.40625 31.78125 66.40625 
z
M 31.78125 74.21875 
Q 44.046875 74.21875 50.515625 64.515625 
Q 56.984375 54.828125 56.984375 36.375 
Q 56.984375 17.96875 50.515625 8.265625 
Q 44.046875 -1.421875 31.78125 -1.421875 
Q 19.53125 -1.421875 13.0625 8.265625 
Q 6.59375 17.96875 6.59375 36.375 
Q 6.59375 54.828125 13.0625 64.515625 
Q 19.53125 74.21875 31.78125 74.21875 
z
" id="DejaVuSans-48"/>
       <path d="M 10.6875 12.40625 
L 21 12.40625 
L 21 0 
L 10.6875 0 
z
" id="DejaVuSans-46"/>
      </defs>
      <g transform="translate(85.096875 249.287914)scale(0.1 -0.1)">
       <use xlink:href="#DejaVuSans-48"/>
       <use x="63.623047" xlink:href="#DejaVuSans-46"/>
       <use x="95.410156" xlink:href="#DejaVuSans-48"/>
      </g>
     </g>
    </g>
    <g id="ytick_2">
     <g id="line2d_8">
      <g>
       <use style="stroke:#000000;stroke-width:0.8;" x="108" xlink:href="#m0d2af0e710" y="222.280754"/>
      </g>
     </g>
     <g id="text_2">
      <!-- 0.1 -->
      <defs>
       <path d="M 12.40625 8.296875 
L 28.515625 8.296875 
L 28.515625 63.921875 
L 10.984375 60.40625 
L 10.984375 69.390625 
L 28.421875 72.90625 
L 38.28125 72.90625 
L 38.28125 8.296875 
L 54.390625 8.296875 
L 54.390625 0 
L 12.40625 0 
z
" id="DejaVuSans-49"/>
      </defs>
      <g transform="translate(85.096875 226.079972)scale(0.1 -0.1)">
       <use xlink:href="#DejaVuSans-48"/>
       <use x="63.623047" xlink:href="#DejaVuSans-46"/>
       <use x="95.410156" xlink:href="#DejaVuSans-49"/>
      </g>
     </g>
    </g>
    <g id="ytick_3">
     <g id="line2d_9">
      <g>
       <use style="stroke:#000000;stroke-width:0.8;" x="108" xlink:href="#m0d2af0e710" y="199.072811"/>
      </g>
     </g>
     <g id="text_3">
      <!-- 0.2 -->
      <defs>
       <path d="M 19.1875 8.296875 
L 53.609375 8.296875 
L 53.609375 0 
L 7.328125 0 
L 7.328125 8.296875 
Q 12.9375 14.109375 22.625 23.890625 
Q 32.328125 33.6875 34.8125 36.53125 
Q 39.546875 41.84375 41.421875 45.53125 
Q 43.3125 49.21875 43.3125 52.78125 
Q 43.3125 58.59375 39.234375 62.25 
Q 35.15625 65.921875 28.609375 65.921875 
Q 23.96875 65.921875 18.8125 64.3125 
Q 13.671875 62.703125 7.8125 59.421875 
L 7.8125 69.390625 
Q 13.765625 71.78125 18.9375 73 
Q 24.125 74.21875 28.421875 74.21875 
Q 39.75 74.21875 46.484375 68.546875 
Q 53.21875 62.890625 53.21875 53.421875 
Q 53.21875 48.921875 51.53125 44.890625 
Q 49.859375 40.875 45.40625 35.40625 
Q 44.1875 33.984375 37.640625 27.21875 
Q 31.109375 20.453125 19.1875 8.296875 
z
" id="DejaVuSans-50"/>
      </defs>
      <g transform="translate(85.096875 202.87203)scale(0.1 -0.1)">
       <use xlink:href="#DejaVuSans-48"/>
       <use x="63.623047" xlink:href="#DejaVuSans-46"/>
       <use x="95.410156" xlink:href="#DejaVuSans-50"/>
      </g>
     </g>
    </g>
    <g id="ytick_4">
     <g id="line2d_10">
      <g>
       <use style="stroke:#000000;stroke-width:0.8;" x="108" xlink:href="#m0d2af0e710" y="175.864869"/>
      </g>
     </g>
     <g id="text_4">
      <!-- 0.3 -->
      <defs>
       <path d="M 40.578125 39.3125 
Q 47.65625 37.796875 51.625 33 
Q 55.609375 28.21875 55.609375 21.1875 
Q 55.609375 10.40625 48.1875 4.484375 
Q 40.765625 -1.421875 27.09375 -1.421875 
Q 22.515625 -1.421875 17.65625 -0.515625 
Q 12.796875 0.390625 7.625 2.203125 
L 7.625 11.71875 
Q 11.71875 9.328125 16.59375 8.109375 
Q 21.484375 6.890625 26.8125 6.890625 
Q 36.078125 6.890625 40.9375 10.546875 
Q 45.796875 14.203125 45.796875 21.1875 
Q 45.796875 27.640625 41.28125 31.265625 
Q 36.765625 34.90625 28.71875 34.90625 
L 20.21875 34.90625 
L 20.21875 43.015625 
L 29.109375 43.015625 
Q 36.375 43.015625 40.234375 45.921875 
Q 44.09375 48.828125 44.09375 54.296875 
Q 44.09375 59.90625 40.109375 62.90625 
Q 36.140625 65.921875 28.71875 65.921875 
Q 24.65625 65.921875 20.015625 65.03125 
Q 15.375 64.15625 9.8125 62.3125 
L 9.8125 71.09375 
Q 15.4375 72.65625 20.34375 73.4375 
Q 25.25 74.21875 29.59375 74.21875 
Q 40.828125 74.21875 47.359375 69.109375 
Q 53.90625 64.015625 53.90625 55.328125 
Q 53.90625 49.265625 50.4375 45.09375 
Q 46.96875 40.921875 40.578125 39.3125 
z
" id="DejaVuSans-51"/>
      </defs>
      <g transform="translate(85.096875 179.664088)scale(0.1 -0.1)">
       <use xlink:href="#DejaVuSans-48"/>
       <use x="63.623047" xlink:href="#DejaVuSans-46"/>
       <use x="95.410156" xlink:href="#DejaVuSans-51"/>
      </g>
     </g>
    </g>
    <g id="ytick_5">
     <g id="line2d_11">
      <g>
       <use style="stroke:#000000;stroke-width:0.8;" x="108" xlink:href="#m0d2af0e710" y="152.656927"/>
      </g>
     </g>
     <g id="text_5">
      <!-- 0.4 -->
      <defs>
       <path d="M 37.796875 64.3125 
L 12.890625 25.390625 
L 37.796875 25.390625 
z
M 35.203125 72.90625 
L 47.609375 72.90625 
L 47.609375 25.390625 
L 58.015625 25.390625 
L 58.015625 17.1875 
L 47.609375 17.1875 
L 47.609375 0 
L 37.796875 0 
L 37.796875 17.1875 
L 4.890625 17.1875 
L 4.890625 26.703125 
z
" id="DejaVuSans-52"/>
      </defs>
      <g transform="translate(85.096875 156.456146)scale(0.1 -0.1)">
       <use xlink:href="#DejaVuSans-48"/>
       <use x="63.623047" xlink:href="#DejaVuSans-46"/>
       <use x="95.410156" xlink:href="#DejaVuSans-52"/>
      </g>
     </g>
    </g>
    <g id="ytick_6">
     <g id="line2d_12">
      <g>
       <use style="stroke:#000000;stroke-width:0.8;" x="108" xlink:href="#m0d2af0e710" y="129.448985"/>
      </g>
     </g>
     <g id="text_6">
      <!-- 0.5 -->
      <defs>
       <path d="M 10.796875 72.90625 
L 49.515625 72.90625 
L 49.515625 64.59375 
L 19.828125 64.59375 
L 19.828125 46.734375 
Q 21.96875 47.46875 24.109375 47.828125 
Q 26.265625 48.1875 28.421875 48.1875 
Q 40.625 48.1875 47.75 41.5 
Q 54.890625 34.8125 54.890625 23.390625 
Q 54.890625 11.625 47.5625 5.09375 
Q 40.234375 -1.421875 26.90625 -1.421875 
Q 22.3125 -1.421875 17.546875 -0.640625 
Q 12.796875 0.140625 7.71875 1.703125 
L 7.71875 11.625 
Q 12.109375 9.234375 16.796875 8.0625 
Q 21.484375 6.890625 26.703125 6.890625 
Q 35.15625 6.890625 40.078125 11.328125 
Q 45.015625 15.765625 45.015625 23.390625 
Q 45.015625 31 40.078125 35.4375 
Q 35.15625 39.890625 26.703125 39.890625 
Q 22.75 39.890625 18.8125 39.015625 
Q 14.890625 38.140625 10.796875 36.28125 
z
" id="DejaVuSans-53"/>
      </defs>
      <g transform="translate(85.096875 133.248204)scale(0.1 -0.1)">
       <use xlink:href="#DejaVuSans-48"/>
       <use x="63.623047" xlink:href="#DejaVuSans-46"/>
       <use x="95.410156" xlink:href="#DejaVuSans-53"/>
      </g>
     </g>
    </g>
    <g id="ytick_7">
     <g id="line2d_13">
      <g>
       <use style="stroke:#000000;stroke-width:0.8;" x="108" xlink:href="#m0d2af0e710" y="106.241043"/>
      </g>
     </g>
     <g id="text_7">
      <!-- 0.6 -->
      <defs>
       <path d="M 33.015625 40.375 
Q 26.375 40.375 22.484375 35.828125 
Q 18.609375 31.296875 18.609375 23.390625 
Q 18.609375 15.53125 22.484375 10.953125 
Q 26.375 6.390625 33.015625 6.390625 
Q 39.65625 6.390625 43.53125 10.953125 
Q 47.40625 15.53125 47.40625 23.390625 
Q 47.40625 31.296875 43.53125 35.828125 
Q 39.65625 40.375 33.015625 40.375 
z
M 52.59375 71.296875 
L 52.59375 62.3125 
Q 48.875 64.0625 45.09375 64.984375 
Q 41.3125 65.921875 37.59375 65.921875 
Q 27.828125 65.921875 22.671875 59.328125 
Q 17.53125 52.734375 16.796875 39.40625 
Q 19.671875 43.65625 24.015625 45.921875 
Q 28.375 48.1875 33.59375 48.1875 
Q 44.578125 48.1875 50.953125 41.515625 
Q 57.328125 34.859375 57.328125 23.390625 
Q 57.328125 12.15625 50.6875 5.359375 
Q 44.046875 -1.421875 33.015625 -1.421875 
Q 20.359375 -1.421875 13.671875 8.265625 
Q 6.984375 17.96875 6.984375 36.375 
Q 6.984375 53.65625 15.1875 63.9375 
Q 23.390625 74.21875 37.203125 74.21875 
Q 40.921875 74.21875 44.703125 73.484375 
Q 48.484375 72.75 52.59375 71.296875 
z
" id="DejaVuSans-54"/>
      </defs>
      <g transform="translate(85.096875 110.040262)scale(0.1 -0.1)">
       <use xlink:href="#DejaVuSans-48"/>
       <use x="63.623047" xlink:href="#DejaVuSans-46"/>
       <use x="95.410156" xlink:href="#DejaVuSans-54"/>
      </g>
     </g>
    </g>
    <g id="text_8">
     <!-- Emissions [Mt$	extrm{CO}_2$/yr] -->
     <defs>
      <path d="M 9.8125 72.90625 
L 55.90625 72.90625 
L 55.90625 64.59375 
L 19.671875 64.59375 
L 19.671875 43.015625 
L 54.390625 43.015625 
L 54.390625 34.71875 
L 19.671875 34.71875 
L 19.671875 8.296875 
L 56.78125 8.296875 
L 56.78125 0 
L 9.8125 0 
z
" id="DejaVuSans-69"/>
      <path d="M 52 44.1875 
Q 55.375 50.25 60.0625 53.125 
Q 64.75 56 71.09375 56 
Q 79.640625 56 84.28125 50.015625 
Q 88.921875 44.046875 88.921875 33.015625 
L 88.921875 0 
L 79.890625 0 
L 79.890625 32.71875 
Q 79.890625 40.578125 77.09375 44.375 
Q 74.3125 48.1875 68.609375 48.1875 
Q 61.625 48.1875 57.5625 43.546875 
Q 53.515625 38.921875 53.515625 30.90625 
L 53.515625 0 
L 44.484375 0 
L 44.484375 32.71875 
Q 44.484375 40.625 41.703125 44.40625 
Q 38.921875 48.1875 33.109375 48.1875 
Q 26.21875 48.1875 22.15625 43.53125 
Q 18.109375 38.875 18.109375 30.90625 
L 18.109375 0 
L 9.078125 0 
L 9.078125 54.6875 
L 18.109375 54.6875 
L 18.109375 46.1875 
Q 21.1875 51.21875 25.484375 53.609375 
Q 29.78125 56 35.6875 56 
Q 41.65625 56 45.828125 52.96875 
Q 50 49.953125 52 44.1875 
z
" id="DejaVuSans-109"/>
      <path d="M 9.421875 54.6875 
L 18.40625 54.6875 
L 18.40625 0 
L 9.421875 0 
z
M 9.421875 75.984375 
L 18.40625 75.984375 
L 18.40625 64.59375 
L 9.421875 64.59375 
z
" id="DejaVuSans-105"/>
      <path d="M 44.28125 53.078125 
L 44.28125 44.578125 
Q 40.484375 46.53125 36.375 47.5 
Q 32.28125 48.484375 27.875 48.484375 
Q 21.1875 48.484375 17.84375 46.4375 
Q 14.5 44.390625 14.5 40.28125 
Q 14.5 37.15625 16.890625 35.375 
Q 19.28125 33.59375 26.515625 31.984375 
L 29.59375 31.296875 
Q 39.15625 29.25 43.1875 25.515625 
Q 47.21875 21.78125 47.21875 15.09375 
Q 47.21875 7.46875 41.1875 3.015625 
Q 35.15625 -1.421875 24.609375 -1.421875 
Q 20.21875 -1.421875 15.453125 -0.5625 
Q 10.6875 0.296875 5.421875 2 
L 5.421875 11.28125 
Q 10.40625 8.6875 15.234375 7.390625 
Q 20.0625 6.109375 24.8125 6.109375 
Q 31.15625 6.109375 34.5625 8.28125 
Q 37.984375 10.453125 37.984375 14.40625 
Q 37.984375 18.0625 35.515625 20.015625 
Q 33.0625 21.96875 24.703125 23.78125 
L 21.578125 24.515625 
Q 13.234375 26.265625 9.515625 29.90625 
Q 5.8125 33.546875 5.8125 39.890625 
Q 5.8125 47.609375 11.28125 51.796875 
Q 16.75 56 26.8125 56 
Q 31.78125 56 36.171875 55.265625 
Q 40.578125 54.546875 44.28125 53.078125 
z
" id="DejaVuSans-115"/>
      <path d="M 30.609375 48.390625 
Q 23.390625 48.390625 19.1875 42.75 
Q 14.984375 37.109375 14.984375 27.296875 
Q 14.984375 17.484375 19.15625 11.84375 
Q 23.34375 6.203125 30.609375 6.203125 
Q 37.796875 6.203125 41.984375 11.859375 
Q 46.1875 17.53125 46.1875 27.296875 
Q 46.1875 37.015625 41.984375 42.703125 
Q 37.796875 48.390625 30.609375 48.390625 
z
M 30.609375 56 
Q 42.328125 56 49.015625 48.375 
Q 55.71875 40.765625 55.71875 27.296875 
Q 55.71875 13.875 49.015625 6.21875 
Q 42.328125 -1.421875 30.609375 -1.421875 
Q 18.84375 -1.421875 12.171875 6.21875 
Q 5.515625 13.875 5.515625 27.296875 
Q 5.515625 40.765625 12.171875 48.375 
Q 18.84375 56 30.609375 56 
z
" id="DejaVuSans-111"/>
      <path d="M 54.890625 33.015625 
L 54.890625 0 
L 45.90625 0 
L 45.90625 32.71875 
Q 45.90625 40.484375 42.875 44.328125 
Q 39.84375 48.1875 33.796875 48.1875 
Q 26.515625 48.1875 22.3125 43.546875 
Q 18.109375 38.921875 18.109375 30.90625 
L 18.109375 0 
L 9.078125 0 
L 9.078125 54.6875 
L 18.109375 54.6875 
L 18.109375 46.1875 
Q 21.34375 51.125 25.703125 53.5625 
Q 30.078125 56 35.796875 56 
Q 45.21875 56 50.046875 50.171875 
Q 54.890625 44.34375 54.890625 33.015625 
z
" id="DejaVuSans-110"/>
      <path id="DejaVuSans-32"/>
      <path d="M 8.59375 75.984375 
L 29.296875 75.984375 
L 29.296875 69 
L 17.578125 69 
L 17.578125 -6.203125 
L 29.296875 -6.203125 
L 29.296875 -13.1875 
L 8.59375 -13.1875 
z
" id="DejaVuSans-91"/>
      <path d="M 9.8125 72.90625 
L 24.515625 72.90625 
L 43.109375 23.296875 
L 61.8125 72.90625 
L 76.515625 72.90625 
L 76.515625 0 
L 66.890625 0 
L 66.890625 64.015625 
L 48.09375 14.015625 
L 38.1875 14.015625 
L 19.390625 64.015625 
L 19.390625 0 
L 9.8125 0 
z
" id="DejaVuSans-77"/>
      <path d="M 18.3125 70.21875 
L 18.3125 54.6875 
L 36.8125 54.6875 
L 36.8125 47.703125 
L 18.3125 47.703125 
L 18.3125 18.015625 
Q 18.3125 11.328125 20.140625 9.421875 
Q 21.96875 7.515625 27.59375 7.515625 
L 36.8125 7.515625 
L 36.8125 0 
L 27.59375 0 
Q 17.1875 0 13.234375 3.875 
Q 9.28125 7.765625 9.28125 18.015625 
L 9.28125 47.703125 
L 2.6875 47.703125 
L 2.6875 54.6875 
L 9.28125 54.6875 
L 9.28125 70.21875 
z
" id="DejaVuSans-116"/>
      <path d="M 48.09375 32.234375 
Q 48.25 33.015625 48.3125 33.84375 
Q 48.390625 34.671875 48.390625 35.5 
Q 48.390625 41.453125 44.890625 44.921875 
Q 41.40625 48.390625 35.40625 48.390625 
Q 28.71875 48.390625 23.578125 44.15625 
Q 18.453125 39.9375 15.828125 32.171875 
z
M 55.90625 25.203125 
L 14.109375 25.203125 
Q 13.8125 23.34375 13.71875 22.265625 
Q 13.625 21.1875 13.625 20.40625 
Q 13.625 13.625 17.796875 9.90625 
Q 21.96875 6.203125 29.59375 6.203125 
Q 35.453125 6.203125 40.671875 7.515625 
Q 45.90625 8.84375 50.390625 11.375 
L 48.6875 2.484375 
Q 43.84375 0.53125 38.6875 -0.4375 
Q 33.546875 -1.421875 28.21875 -1.421875 
Q 16.84375 -1.421875 10.71875 4.015625 
Q 4.59375 9.46875 4.59375 19.484375 
Q 4.59375 28.03125 7.640625 35.375 
Q 10.6875 42.71875 16.609375 48.484375 
Q 20.40625 52.09375 25.65625 54.046875 
Q 30.90625 56 36.8125 56 
Q 46.09375 56 51.578125 50.4375 
Q 57.078125 44.875 57.078125 35.5 
Q 57.078125 33.25 56.78125 30.6875 
Q 56.5 28.125 55.90625 25.203125 
z
" id="DejaVuSans-Oblique-101"/>
      <path d="M 60.015625 54.6875 
L 34.90625 27.875 
L 50.296875 0 
L 39.984375 0 
L 28.421875 21.6875 
L 8.296875 0 
L -2.59375 0 
L 24.3125 28.8125 
L 10.015625 54.6875 
L 20.3125 54.6875 
L 30.8125 34.90625 
L 49.125 54.6875 
z
" id="DejaVuSans-Oblique-120"/>
      <path d="M 42.28125 54.6875 
L 40.921875 47.703125 
L 23 47.703125 
L 17.1875 18.015625 
Q 16.890625 16.359375 16.75 15.234375 
Q 16.609375 14.109375 16.609375 13.484375 
Q 16.609375 10.359375 18.484375 8.9375 
Q 20.359375 7.515625 24.515625 7.515625 
L 33.59375 7.515625 
L 32.078125 0 
L 23.484375 0 
Q 15.484375 0 11.546875 3.125 
Q 7.625 6.25 7.625 12.59375 
Q 7.625 13.71875 7.765625 15.0625 
Q 7.90625 16.40625 8.203125 18.015625 
L 14.015625 47.703125 
L 6.390625 47.703125 
L 7.8125 54.6875 
L 15.28125 54.6875 
L 18.3125 70.21875 
L 27.296875 70.21875 
L 24.3125 54.6875 
z
" id="DejaVuSans-Oblique-116"/>
      <path d="M 44.578125 46.390625 
Q 43.21875 47.125 41.453125 47.515625 
Q 39.703125 47.90625 37.703125 47.90625 
Q 30.515625 47.90625 25.140625 42.453125 
Q 19.78125 37.015625 18.015625 27.875 
L 12.5 0 
L 3.515625 0 
L 14.203125 54.6875 
L 23.1875 54.6875 
L 21.484375 46.1875 
Q 25.046875 50.921875 30 53.453125 
Q 34.96875 56 40.578125 56 
Q 42.046875 56 43.453125 55.828125 
Q 44.875 55.671875 46.296875 55.28125 
z
" id="DejaVuSans-Oblique-114"/>
      <path d="M 89.796875 33.015625 
L 83.40625 0 
L 74.421875 0 
L 80.71875 32.71875 
Q 81.109375 34.8125 81.296875 36.328125 
Q 81.5 37.84375 81.5 38.921875 
Q 81.5 43.3125 79.046875 45.75 
Q 76.609375 48.1875 72.21875 48.1875 
Q 65.671875 48.1875 60.546875 43.28125 
Q 55.421875 38.375 53.90625 30.515625 
L 47.90625 0 
L 38.921875 0 
L 45.3125 32.71875 
Q 45.703125 34.515625 45.890625 36.046875 
Q 46.09375 37.59375 46.09375 38.8125 
Q 46.09375 43.265625 43.65625 45.71875 
Q 41.21875 48.1875 36.921875 48.1875 
Q 30.28125 48.1875 25.140625 43.28125 
Q 20.015625 38.375 18.5 30.515625 
L 12.5 0 
L 3.515625 0 
L 14.203125 54.6875 
L 23.1875 54.6875 
L 21.484375 46.1875 
Q 25.140625 50.984375 30.046875 53.484375 
Q 34.96875 56 40.578125 56 
Q 46.53125 56 50.359375 52.875 
Q 54.203125 49.75 54.984375 44.1875 
Q 59.078125 49.953125 64.46875 52.96875 
Q 69.875 56 75.875 56 
Q 82.90625 56 86.734375 51.953125 
Q 90.578125 47.90625 90.578125 40.484375 
Q 90.578125 38.875 90.375 36.9375 
Q 90.1875 35.015625 89.796875 33.015625 
z
" id="DejaVuSans-Oblique-109"/>
      <path d="M 69.484375 67.28125 
L 67.484375 56.890625 
Q 62.796875 61.625 57.546875 63.921875 
Q 52.296875 66.21875 46.1875 66.21875 
Q 37.84375 66.21875 31.515625 62.203125 
Q 25.203125 58.203125 20.609375 50 
Q 17.671875 44.734375 16.125 38.84375 
Q 14.59375 32.953125 14.59375 27 
Q 14.59375 17.046875 19.75 11.8125 
Q 24.90625 6.59375 34.71875 6.59375 
Q 41.5 6.59375 47.75 8.765625 
Q 54 10.9375 59.90625 15.28125 
L 57.625 3.609375 
Q 51.8125 1.125 45.875 -0.140625 
Q 39.9375 -1.421875 33.984375 -1.421875 
Q 19.96875 -1.421875 12.078125 6.1875 
Q 4.203125 13.8125 4.203125 27.390625 
Q 4.203125 36.078125 7.203125 44.46875 
Q 10.203125 52.875 15.828125 59.8125 
Q 21.78125 67.1875 29.421875 70.703125 
Q 37.0625 74.21875 47.21875 74.21875 
Q 53.46875 74.21875 59.0625 72.484375 
Q 64.65625 70.75 69.484375 67.28125 
z
" id="DejaVuSans-Oblique-67"/>
      <path d="M 45.609375 66.21875 
Q 37.5 66.21875 31.296875 62.28125 
Q 25.09375 58.34375 20.515625 50.296875 
Q 17.578125 45.171875 16.03125 39.40625 
Q 14.5 33.640625 14.5 27.78125 
Q 14.5 17.625 19.359375 12.109375 
Q 24.21875 6.59375 33.109375 6.59375 
Q 41.109375 6.59375 47.375 10.5625 
Q 53.65625 14.546875 58.109375 22.40625 
Q 61.078125 27.6875 62.640625 33.46875 
Q 64.203125 39.265625 64.203125 45.015625 
Q 64.203125 55.125 59.3125 60.671875 
Q 54.4375 66.21875 45.609375 66.21875 
z
M 32.8125 -1.421875 
Q 19.390625 -1.421875 11.6875 6.53125 
Q 4 14.5 4 28.328125 
Q 4 36.234375 7 44.484375 
Q 10.015625 52.734375 15.28125 59.1875 
Q 21.484375 66.75 29.09375 70.484375 
Q 36.71875 74.21875 45.90625 74.21875 
Q 59.28125 74.21875 66.984375 66.328125 
Q 74.703125 58.453125 74.703125 44.828125 
Q 74.703125 36.421875 71.765625 28.3125 
Q 68.84375 20.21875 63.375 13.625 
Q 57.125 6 49.578125 2.28125 
Q 42.046875 -1.421875 32.8125 -1.421875 
z
" id="DejaVuSans-Oblique-79"/>
      <path d="M 25.390625 72.90625 
L 33.6875 72.90625 
L 8.296875 -9.28125 
L 0 -9.28125 
z
" id="DejaVuSans-47"/>
      <path d="M 32.171875 -5.078125 
Q 28.375 -14.84375 24.75 -17.8125 
Q 21.140625 -20.796875 15.09375 -20.796875 
L 7.90625 -20.796875 
L 7.90625 -13.28125 
L 13.1875 -13.28125 
Q 16.890625 -13.28125 18.9375 -11.515625 
Q 21 -9.765625 23.484375 -3.21875 
L 25.09375 0.875 
L 2.984375 54.6875 
L 12.5 54.6875 
L 29.59375 11.921875 
L 46.6875 54.6875 
L 56.203125 54.6875 
z
" id="DejaVuSans-121"/>
      <path d="M 41.109375 46.296875 
Q 39.59375 47.171875 37.8125 47.578125 
Q 36.03125 48 33.890625 48 
Q 26.265625 48 22.1875 43.046875 
Q 18.109375 38.09375 18.109375 28.8125 
L 18.109375 0 
L 9.078125 0 
L 9.078125 54.6875 
L 18.109375 54.6875 
L 18.109375 46.1875 
Q 20.953125 51.171875 25.484375 53.578125 
Q 30.03125 56 36.53125 56 
Q 37.453125 56 38.578125 55.875 
Q 39.703125 55.765625 41.0625 55.515625 
z
" id="DejaVuSans-114"/>
      <path d="M 30.421875 75.984375 
L 30.421875 -13.1875 
L 9.71875 -13.1875 
L 9.71875 -6.203125 
L 21.390625 -6.203125 
L 21.390625 69 
L 9.71875 69 
L 9.71875 75.984375 
z
" id="DejaVuSans-93"/>
     </defs>
     <g transform="translate(78.996875 242.634348)rotate(-90)scale(0.1 -0.1)">
      <use transform="translate(0 0.015625)" xlink:href="#DejaVuSans-69"/>
      <use transform="translate(63.183594 0.015625)" xlink:href="#DejaVuSans-109"/>
      <use transform="translate(160.595703 0.015625)" xlink:href="#DejaVuSans-105"/>
      <use transform="translate(188.378906 0.015625)" xlink:href="#DejaVuSans-115"/>
      <use transform="translate(240.478516 0.015625)" xlink:href="#DejaVuSans-115"/>
      <use transform="translate(292.578125 0.015625)" xlink:href="#DejaVuSans-105"/>
      <use transform="translate(320.361328 0.015625)" xlink:href="#DejaVuSans-111"/>
      <use transform="translate(381.542969 0.015625)" xlink:href="#DejaVuSans-110"/>
      <use transform="translate(444.921875 0.015625)" xlink:href="#DejaVuSans-115"/>
      <use transform="translate(497.021484 0.015625)" xlink:href="#DejaVuSans-32"/>
      <use transform="translate(528.808594 0.015625)" xlink:href="#DejaVuSans-91"/>
      <use transform="translate(567.822266 0.015625)" xlink:href="#DejaVuSans-77"/>
      <use transform="translate(654.101562 0.015625)" xlink:href="#DejaVuSans-116"/>
      <use transform="translate(693.310547 0.015625)" xlink:href="#DejaVuSans-Oblique-101"/>
      <use transform="translate(754.833984 0.015625)" xlink:href="#DejaVuSans-Oblique-120"/>
      <use transform="translate(814.013672 0.015625)" xlink:href="#DejaVuSans-Oblique-116"/>
      <use transform="translate(853.222656 0.015625)" xlink:href="#DejaVuSans-Oblique-114"/>
      <use transform="translate(894.335938 0.015625)" xlink:href="#DejaVuSans-Oblique-109"/>
      <use transform="translate(991.748047 0.015625)" xlink:href="#DejaVuSans-Oblique-67"/>
      <use transform="translate(1061.572266 0.015625)" xlink:href="#DejaVuSans-Oblique-79"/>
      <use transform="translate(1140.283203 -16.390625)scale(0.7)" xlink:href="#DejaVuSans-50"/>
      <use transform="translate(1187.553711 0.015625)" xlink:href="#DejaVuSans-47"/>
      <use transform="translate(1221.245117 0.015625)" xlink:href="#DejaVuSans-121"/>
      <use transform="translate(1280.424805 0.015625)" xlink:href="#DejaVuSans-114"/>
      <use transform="translate(1321.538086 0.015625)" xlink:href="#DejaVuSans-93"/>
     </g>
    </g>
   </g>
   <g id="patch_15">
    <path d="M 108 245.488696 
L 108 103.68 
" style="fill:none;stroke:#000000;stroke-linecap:square;stroke-linejoin:miter;stroke-width:0.8;"/>
   </g>
   <g id="patch_16">
    <path d="M 777.6 245.488696 
L 777.6 103.68 
" style="fill:none;stroke:#000000;stroke-linecap:square;stroke-linejoin:miter;stroke-width:0.8;"/>
   </g>
   <g id="patch_17">
    <path d="M 108 245.488696 
L 777.6 245.488696 
" style="fill:none;stroke:#000000;stroke-linecap:square;stroke-linejoin:miter;stroke-width:0.8;"/>
   </g>
   <g id="patch_18">
    <path d="M 108 103.68 
L 777.6 103.68 
" style="fill:none;stroke:#000000;stroke-linecap:square;stroke-linejoin:miter;stroke-width:0.8;"/>
   </g>
   <g id="legend_1">
    <g id="patch_19">
     <path d="M 639.617188 185.070625 
L 770.6 185.070625 
Q 772.6 185.070625 772.6 183.070625 
L 772.6 110.68 
Q 772.6 108.68 770.6 108.68 
L 639.617188 108.68 
Q 637.617188 108.68 637.617188 110.68 
L 637.617188 183.070625 
Q 637.617188 185.070625 639.617188 185.070625 
z
" style="fill:#ffffff;opacity:0.8;stroke:#cccccc;stroke-linejoin:miter;"/>
    </g>
    <g id="line2d_14">
     <path d="M 641.617188 116.778437 
L 661.617188 116.778437 
" style="fill:none;stroke:#ff0000;stroke-width:1.5;"/>
    </g>
    <g id="text_9">
     <!-- Emissions Captured -->
     <defs>
      <path d="M 64.40625 67.28125 
L 64.40625 56.890625 
Q 59.421875 61.53125 53.78125 63.8125 
Q 48.140625 66.109375 41.796875 66.109375 
Q 29.296875 66.109375 22.65625 58.46875 
Q 16.015625 50.828125 16.015625 36.375 
Q 16.015625 21.96875 22.65625 14.328125 
Q 29.296875 6.6875 41.796875 6.6875 
Q 48.140625 6.6875 53.78125 8.984375 
Q 59.421875 11.28125 64.40625 15.921875 
L 64.40625 5.609375 
Q 59.234375 2.09375 53.4375 0.328125 
Q 47.65625 -1.421875 41.21875 -1.421875 
Q 24.65625 -1.421875 15.125 8.703125 
Q 5.609375 18.84375 5.609375 36.375 
Q 5.609375 53.953125 15.125 64.078125 
Q 24.65625 74.21875 41.21875 74.21875 
Q 47.75 74.21875 53.53125 72.484375 
Q 59.328125 70.75 64.40625 67.28125 
z
" id="DejaVuSans-67"/>
      <path d="M 34.28125 27.484375 
Q 23.390625 27.484375 19.1875 25 
Q 14.984375 22.515625 14.984375 16.5 
Q 14.984375 11.71875 18.140625 8.90625 
Q 21.296875 6.109375 26.703125 6.109375 
Q 34.1875 6.109375 38.703125 11.40625 
Q 43.21875 16.703125 43.21875 25.484375 
L 43.21875 27.484375 
z
M 52.203125 31.203125 
L 52.203125 0 
L 43.21875 0 
L 43.21875 8.296875 
Q 40.140625 3.328125 35.546875 0.953125 
Q 30.953125 -1.421875 24.3125 -1.421875 
Q 15.921875 -1.421875 10.953125 3.296875 
Q 6 8.015625 6 15.921875 
Q 6 25.140625 12.171875 29.828125 
Q 18.359375 34.515625 30.609375 34.515625 
L 43.21875 34.515625 
L 43.21875 35.40625 
Q 43.21875 41.609375 39.140625 45 
Q 35.0625 48.390625 27.6875 48.390625 
Q 23 48.390625 18.546875 47.265625 
Q 14.109375 46.140625 10.015625 43.890625 
L 10.015625 52.203125 
Q 14.9375 54.109375 19.578125 55.046875 
Q 24.21875 56 28.609375 56 
Q 40.484375 56 46.34375 49.84375 
Q 52.203125 43.703125 52.203125 31.203125 
z
" id="DejaVuSans-97"/>
      <path d="M 18.109375 8.203125 
L 18.109375 -20.796875 
L 9.078125 -20.796875 
L 9.078125 54.6875 
L 18.109375 54.6875 
L 18.109375 46.390625 
Q 20.953125 51.265625 25.265625 53.625 
Q 29.59375 56 35.59375 56 
Q 45.5625 56 51.78125 48.09375 
Q 58.015625 40.1875 58.015625 27.296875 
Q 58.015625 14.40625 51.78125 6.484375 
Q 45.5625 -1.421875 35.59375 -1.421875 
Q 29.59375 -1.421875 25.265625 0.953125 
Q 20.953125 3.328125 18.109375 8.203125 
z
M 48.6875 27.296875 
Q 48.6875 37.203125 44.609375 42.84375 
Q 40.53125 48.484375 33.40625 48.484375 
Q 26.265625 48.484375 22.1875 42.84375 
Q 18.109375 37.203125 18.109375 27.296875 
Q 18.109375 17.390625 22.1875 11.75 
Q 26.265625 6.109375 33.40625 6.109375 
Q 40.53125 6.109375 44.609375 11.75 
Q 48.6875 17.390625 48.6875 27.296875 
z
" id="DejaVuSans-112"/>
      <path d="M 8.5 21.578125 
L 8.5 54.6875 
L 17.484375 54.6875 
L 17.484375 21.921875 
Q 17.484375 14.15625 20.5 10.265625 
Q 23.53125 6.390625 29.59375 6.390625 
Q 36.859375 6.390625 41.078125 11.03125 
Q 45.3125 15.671875 45.3125 23.6875 
L 45.3125 54.6875 
L 54.296875 54.6875 
L 54.296875 0 
L 45.3125 0 
L 45.3125 8.40625 
Q 42.046875 3.421875 37.71875 1 
Q 33.40625 -1.421875 27.6875 -1.421875 
Q 18.265625 -1.421875 13.375 4.4375 
Q 8.5 10.296875 8.5 21.578125 
z
M 31.109375 56 
z
" id="DejaVuSans-117"/>
      <path d="M 56.203125 29.59375 
L 56.203125 25.203125 
L 14.890625 25.203125 
Q 15.484375 15.921875 20.484375 11.0625 
Q 25.484375 6.203125 34.421875 6.203125 
Q 39.59375 6.203125 44.453125 7.46875 
Q 49.3125 8.734375 54.109375 11.28125 
L 54.109375 2.78125 
Q 49.265625 0.734375 44.1875 -0.34375 
Q 39.109375 -1.421875 33.890625 -1.421875 
Q 20.796875 -1.421875 13.15625 6.1875 
Q 5.515625 13.8125 5.515625 26.8125 
Q 5.515625 40.234375 12.765625 48.109375 
Q 20.015625 56 32.328125 56 
Q 43.359375 56 49.78125 48.890625 
Q 56.203125 41.796875 56.203125 29.59375 
z
M 47.21875 32.234375 
Q 47.125 39.59375 43.09375 43.984375 
Q 39.0625 48.390625 32.421875 48.390625 
Q 24.90625 48.390625 20.390625 44.140625 
Q 15.875 39.890625 15.1875 32.171875 
z
" id="DejaVuSans-101"/>
      <path d="M 45.40625 46.390625 
L 45.40625 75.984375 
L 54.390625 75.984375 
L 54.390625 0 
L 45.40625 0 
L 45.40625 8.203125 
Q 42.578125 3.328125 38.25 0.953125 
Q 33.9375 -1.421875 27.875 -1.421875 
Q 17.96875 -1.421875 11.734375 6.484375 
Q 5.515625 14.40625 5.515625 27.296875 
Q 5.515625 40.1875 11.734375 48.09375 
Q 17.96875 56 27.875 56 
Q 33.9375 56 38.25 53.625 
Q 42.578125 51.265625 45.40625 46.390625 
z
M 14.796875 27.296875 
Q 14.796875 17.390625 18.875 11.75 
Q 22.953125 6.109375 30.078125 6.109375 
Q 37.203125 6.109375 41.296875 11.75 
Q 45.40625 17.390625 45.40625 27.296875 
Q 45.40625 37.203125 41.296875 42.84375 
Q 37.203125 48.484375 30.078125 48.484375 
Q 22.953125 48.484375 18.875 42.84375 
Q 14.796875 37.203125 14.796875 27.296875 
z
" id="DejaVuSans-100"/>
     </defs>
     <g transform="translate(669.617188 120.278437)scale(0.1 -0.1)">
      <use xlink:href="#DejaVuSans-69"/>
      <use x="63.183594" xlink:href="#DejaVuSans-109"/>
      <use x="160.595703" xlink:href="#DejaVuSans-105"/>
      <use x="188.378906" xlink:href="#DejaVuSans-115"/>
      <use x="240.478516" xlink:href="#DejaVuSans-115"/>
      <use x="292.578125" xlink:href="#DejaVuSans-105"/>
      <use x="320.361328" xlink:href="#DejaVuSans-111"/>
      <use x="381.542969" xlink:href="#DejaVuSans-110"/>
      <use x="444.921875" xlink:href="#DejaVuSans-115"/>
      <use x="497.021484" xlink:href="#DejaVuSans-32"/>
      <use x="528.808594" xlink:href="#DejaVuSans-67"/>
      <use x="598.632812" xlink:href="#DejaVuSans-97"/>
      <use x="659.912109" xlink:href="#DejaVuSans-112"/>
      <use x="723.388672" xlink:href="#DejaVuSans-116"/>
      <use x="762.597656" xlink:href="#DejaVuSans-117"/>
      <use x="825.976562" xlink:href="#DejaVuSans-114"/>
      <use x="864.839844" xlink:href="#DejaVuSans-101"/>
      <use x="926.363281" xlink:href="#DejaVuSans-100"/>
     </g>
    </g>
    <g id="patch_20">
     <path d="M 641.617188 134.956563 
L 661.617188 134.956563 
L 661.617188 127.956563 
L 641.617188 127.956563 
z
" style="fill:#dd1c77;"/>
    </g>
    <g id="text_10">
     <!-- Storage Emissions -->
     <defs>
      <path d="M 53.515625 70.515625 
L 53.515625 60.890625 
Q 47.90625 63.578125 42.921875 64.890625 
Q 37.9375 66.21875 33.296875 66.21875 
Q 25.25 66.21875 20.875 63.09375 
Q 16.5 59.96875 16.5 54.203125 
Q 16.5 49.359375 19.40625 46.890625 
Q 22.3125 44.4375 30.421875 42.921875 
L 36.375 41.703125 
Q 47.40625 39.59375 52.65625 34.296875 
Q 57.90625 29 57.90625 20.125 
Q 57.90625 9.515625 50.796875 4.046875 
Q 43.703125 -1.421875 29.984375 -1.421875 
Q 24.8125 -1.421875 18.96875 -0.25 
Q 13.140625 0.921875 6.890625 3.21875 
L 6.890625 13.375 
Q 12.890625 10.015625 18.65625 8.296875 
Q 24.421875 6.59375 29.984375 6.59375 
Q 38.421875 6.59375 43.015625 9.90625 
Q 47.609375 13.234375 47.609375 19.390625 
Q 47.609375 24.75 44.3125 27.78125 
Q 41.015625 30.8125 33.5 32.328125 
L 27.484375 33.5 
Q 16.453125 35.6875 11.515625 40.375 
Q 6.59375 45.0625 6.59375 53.421875 
Q 6.59375 63.09375 13.40625 68.65625 
Q 20.21875 74.21875 32.171875 74.21875 
Q 37.3125 74.21875 42.625 73.28125 
Q 47.953125 72.359375 53.515625 70.515625 
z
" id="DejaVuSans-83"/>
      <path d="M 45.40625 27.984375 
Q 45.40625 37.75 41.375 43.109375 
Q 37.359375 48.484375 30.078125 48.484375 
Q 22.859375 48.484375 18.828125 43.109375 
Q 14.796875 37.75 14.796875 27.984375 
Q 14.796875 18.265625 18.828125 12.890625 
Q 22.859375 7.515625 30.078125 7.515625 
Q 37.359375 7.515625 41.375 12.890625 
Q 45.40625 18.265625 45.40625 27.984375 
z
M 54.390625 6.78125 
Q 54.390625 -7.171875 48.1875 -13.984375 
Q 42 -20.796875 29.203125 -20.796875 
Q 24.46875 -20.796875 20.265625 -20.09375 
Q 16.0625 -19.390625 12.109375 -17.921875 
L 12.109375 -9.1875 
Q 16.0625 -11.328125 19.921875 -12.34375 
Q 23.78125 -13.375 27.78125 -13.375 
Q 36.625 -13.375 41.015625 -8.765625 
Q 45.40625 -4.15625 45.40625 5.171875 
L 45.40625 9.625 
Q 42.625 4.78125 38.28125 2.390625 
Q 33.9375 0 27.875 0 
Q 17.828125 0 11.671875 7.65625 
Q 5.515625 15.328125 5.515625 27.984375 
Q 5.515625 40.671875 11.671875 48.328125 
Q 17.828125 56 27.875 56 
Q 33.9375 56 38.28125 53.609375 
Q 42.625 51.21875 45.40625 46.390625 
L 45.40625 54.6875 
L 54.390625 54.6875 
z
" id="DejaVuSans-103"/>
     </defs>
     <g transform="translate(669.617188 134.956563)scale(0.1 -0.1)">
      <use xlink:href="#DejaVuSans-83"/>
      <use x="63.476562" xlink:href="#DejaVuSans-116"/>
      <use x="102.685547" xlink:href="#DejaVuSans-111"/>
      <use x="163.867188" xlink:href="#DejaVuSans-114"/>
      <use x="204.980469" xlink:href="#DejaVuSans-97"/>
      <use x="266.259766" xlink:href="#DejaVuSans-103"/>
      <use x="329.736328" xlink:href="#DejaVuSans-101"/>
      <use x="391.259766" xlink:href="#DejaVuSans-32"/>
      <use x="423.046875" xlink:href="#DejaVuSans-69"/>
      <use x="486.230469" xlink:href="#DejaVuSans-109"/>
      <use x="583.642578" xlink:href="#DejaVuSans-105"/>
      <use x="611.425781" xlink:href="#DejaVuSans-115"/>
      <use x="663.525391" xlink:href="#DejaVuSans-115"/>
      <use x="715.625" xlink:href="#DejaVuSans-105"/>
      <use x="743.408203" xlink:href="#DejaVuSans-111"/>
      <use x="804.589844" xlink:href="#DejaVuSans-110"/>
      <use x="867.96875" xlink:href="#DejaVuSans-115"/>
     </g>
    </g>
    <g id="patch_21">
     <path d="M 641.617188 149.634688 
L 661.617188 149.634688 
L 661.617188 142.634688 
L 641.617188 142.634688 
z
" style="fill:#c994c7;"/>
    </g>
    <g id="text_11">
     <!-- Network Emissions -->
     <defs>
      <path d="M 9.8125 72.90625 
L 23.09375 72.90625 
L 55.421875 11.921875 
L 55.421875 72.90625 
L 64.984375 72.90625 
L 64.984375 0 
L 51.703125 0 
L 19.390625 60.984375 
L 19.390625 0 
L 9.8125 0 
z
" id="DejaVuSans-78"/>
      <path d="M 4.203125 54.6875 
L 13.1875 54.6875 
L 24.421875 12.015625 
L 35.59375 54.6875 
L 46.1875 54.6875 
L 57.421875 12.015625 
L 68.609375 54.6875 
L 77.59375 54.6875 
L 63.28125 0 
L 52.6875 0 
L 40.921875 44.828125 
L 29.109375 0 
L 18.5 0 
z
" id="DejaVuSans-119"/>
      <path d="M 9.078125 75.984375 
L 18.109375 75.984375 
L 18.109375 31.109375 
L 44.921875 54.6875 
L 56.390625 54.6875 
L 27.390625 29.109375 
L 57.625 0 
L 45.90625 0 
L 18.109375 26.703125 
L 18.109375 0 
L 9.078125 0 
z
" id="DejaVuSans-107"/>
     </defs>
     <g transform="translate(669.617188 149.634688)scale(0.1 -0.1)">
      <use xlink:href="#DejaVuSans-78"/>
      <use x="74.804688" xlink:href="#DejaVuSans-101"/>
      <use x="136.328125" xlink:href="#DejaVuSans-116"/>
      <use x="175.537109" xlink:href="#DejaVuSans-119"/>
      <use x="257.324219" xlink:href="#DejaVuSans-111"/>
      <use x="318.505859" xlink:href="#DejaVuSans-114"/>
      <use x="359.619141" xlink:href="#DejaVuSans-107"/>
      <use x="417.529297" xlink:href="#DejaVuSans-32"/>
      <use x="449.316406" xlink:href="#DejaVuSans-69"/>
      <use x="512.5" xlink:href="#DejaVuSans-109"/>
      <use x="609.912109" xlink:href="#DejaVuSans-105"/>
      <use x="637.695312" xlink:href="#DejaVuSans-115"/>
      <use x="689.794922" xlink:href="#DejaVuSans-115"/>
      <use x="741.894531" xlink:href="#DejaVuSans-105"/>
      <use x="769.677734" xlink:href="#DejaVuSans-111"/>
      <use x="830.859375" xlink:href="#DejaVuSans-110"/>
      <use x="894.238281" xlink:href="#DejaVuSans-115"/>
     </g>
    </g>
    <g id="patch_22">
     <path d="M 641.617188 164.312812 
L 661.617188 164.312812 
L 661.617188 157.312812 
L 641.617188 157.312812 
z
" style="fill:#e7e1ef;"/>
    </g>
    <g id="text_12">
     <!-- Capture Emissions -->
     <g transform="translate(669.617188 164.312812)scale(0.1 -0.1)">
      <use xlink:href="#DejaVuSans-67"/>
      <use x="69.824219" xlink:href="#DejaVuSans-97"/>
      <use x="131.103516" xlink:href="#DejaVuSans-112"/>
      <use x="194.580078" xlink:href="#DejaVuSans-116"/>
      <use x="233.789062" xlink:href="#DejaVuSans-117"/>
      <use x="297.167969" xlink:href="#DejaVuSans-114"/>
      <use x="336.03125" xlink:href="#DejaVuSans-101"/>
      <use x="397.554688" xlink:href="#DejaVuSans-32"/>
      <use x="429.341797" xlink:href="#DejaVuSans-69"/>
      <use x="492.525391" xlink:href="#DejaVuSans-109"/>
      <use x="589.9375" xlink:href="#DejaVuSans-105"/>
      <use x="617.720703" xlink:href="#DejaVuSans-115"/>
      <use x="669.820312" xlink:href="#DejaVuSans-115"/>
      <use x="721.919922" xlink:href="#DejaVuSans-105"/>
      <use x="749.703125" xlink:href="#DejaVuSans-111"/>
      <use x="810.884766" xlink:href="#DejaVuSans-110"/>
      <use x="874.263672" xlink:href="#DejaVuSans-115"/>
     </g>
    </g>
    <g id="patch_23">
     <path d="M 641.617188 178.990937 
L 661.617188 178.990937 
L 661.617188 171.990937 
L 641.617188 171.990937 
z
" style="fill:#808080;"/>
    </g>
    <g id="text_13">
     <!-- WtE Emissions -->
     <defs>
      <path d="M 3.328125 72.90625 
L 13.28125 72.90625 
L 28.609375 11.28125 
L 43.890625 72.90625 
L 54.984375 72.90625 
L 70.3125 11.28125 
L 85.59375 72.90625 
L 95.609375 72.90625 
L 77.296875 0 
L 64.890625 0 
L 49.515625 63.28125 
L 33.984375 0 
L 21.578125 0 
z
" id="DejaVuSans-87"/>
     </defs>
     <g transform="translate(669.617188 178.990937)scale(0.1 -0.1)">
      <use xlink:href="#DejaVuSans-87"/>
      <use x="98.876953" xlink:href="#DejaVuSans-116"/>
      <use x="138.085938" xlink:href="#DejaVuSans-69"/>
      <use x="201.269531" xlink:href="#DejaVuSans-32"/>
      <use x="233.056641" xlink:href="#DejaVuSans-69"/>
      <use x="296.240234" xlink:href="#DejaVuSans-109"/>
      <use x="393.652344" xlink:href="#DejaVuSans-105"/>
      <use x="421.435547" xlink:href="#DejaVuSans-115"/>
      <use x="473.535156" xlink:href="#DejaVuSans-115"/>
      <use x="525.634766" xlink:href="#DejaVuSans-105"/>
      <use x="553.417969" xlink:href="#DejaVuSans-111"/>
      <use x="614.599609" xlink:href="#DejaVuSans-110"/>
      <use x="677.978516" xlink:href="#DejaVuSans-115"/>
     </g>
    </g>
   </g>
  </g>
  <g id="axes_2">
   <g id="matplotlib.axis_3">
    <g id="ytick_8">
     <g id="line2d_15">
      <defs>
       <path d="M 0 0 
L 3.5 0 
" id="m63026f783c" style="stroke:#000000;stroke-width:0.8;"/>
      </defs>
      <g>
       <use style="stroke:#000000;stroke-width:0.8;" x="777.6" xlink:href="#m63026f783c" y="245.488696"/>
      </g>
     </g>
     <g id="text_14">
      <!-- 0% -->
      <defs>
       <path d="M 72.703125 32.078125 
Q 68.453125 32.078125 66.03125 28.46875 
Q 63.625 24.859375 63.625 18.40625 
Q 63.625 12.0625 66.03125 8.421875 
Q 68.453125 4.78125 72.703125 4.78125 
Q 76.859375 4.78125 79.265625 8.421875 
Q 81.6875 12.0625 81.6875 18.40625 
Q 81.6875 24.8125 79.265625 28.4375 
Q 76.859375 32.078125 72.703125 32.078125 
z
M 72.703125 38.28125 
Q 80.421875 38.28125 84.953125 32.90625 
Q 89.5 27.546875 89.5 18.40625 
Q 89.5 9.28125 84.9375 3.921875 
Q 80.375 -1.421875 72.703125 -1.421875 
Q 64.890625 -1.421875 60.34375 3.921875 
Q 55.8125 9.28125 55.8125 18.40625 
Q 55.8125 27.59375 60.375 32.9375 
Q 64.9375 38.28125 72.703125 38.28125 
z
M 22.3125 68.015625 
Q 18.109375 68.015625 15.6875 64.375 
Q 13.28125 60.75 13.28125 54.390625 
Q 13.28125 47.953125 15.671875 44.328125 
Q 18.0625 40.71875 22.3125 40.71875 
Q 26.5625 40.71875 28.96875 44.328125 
Q 31.390625 47.953125 31.390625 54.390625 
Q 31.390625 60.6875 28.953125 64.34375 
Q 26.515625 68.015625 22.3125 68.015625 
z
M 66.40625 74.21875 
L 74.21875 74.21875 
L 28.609375 -1.421875 
L 20.796875 -1.421875 
z
M 22.3125 74.21875 
Q 30.03125 74.21875 34.609375 68.875 
Q 39.203125 63.53125 39.203125 54.390625 
Q 39.203125 45.171875 34.640625 39.84375 
Q 30.078125 34.515625 22.3125 34.515625 
Q 14.546875 34.515625 10.03125 39.859375 
Q 5.515625 45.21875 5.515625 54.390625 
Q 5.515625 63.484375 10.046875 68.84375 
Q 14.59375 74.21875 22.3125 74.21875 
z
" id="DejaVuSans-37"/>
      </defs>
      <g transform="translate(784.6 249.287914)scale(0.1 -0.1)">
       <use xlink:href="#DejaVuSans-48"/>
       <use x="63.623047" xlink:href="#DejaVuSans-37"/>
      </g>
     </g>
    </g>
    <g id="ytick_9">
     <g id="line2d_16">
      <g>
       <use style="stroke:#000000;stroke-width:0.8;" x="777.6" xlink:href="#m63026f783c" y="221.853913"/>
      </g>
     </g>
     <g id="text_15">
      <!-- 20% -->
      <g transform="translate(784.6 225.653132)scale(0.1 -0.1)">
       <use xlink:href="#DejaVuSans-50"/>
       <use x="63.623047" xlink:href="#DejaVuSans-48"/>
       <use x="127.246094" xlink:href="#DejaVuSans-37"/>
      </g>
     </g>
    </g>
    <g id="ytick_10">
     <g id="line2d_17">
      <g>
       <use style="stroke:#000000;stroke-width:0.8;" x="777.6" xlink:href="#m63026f783c" y="198.21913"/>
      </g>
     </g>
     <g id="text_16">
      <!-- 40% -->
      <g transform="translate(784.6 202.018349)scale(0.1 -0.1)">
       <use xlink:href="#DejaVuSans-52"/>
       <use x="63.623047" xlink:href="#DejaVuSans-48"/>
       <use x="127.246094" xlink:href="#DejaVuSans-37"/>
      </g>
     </g>
    </g>
    <g id="ytick_11">
     <g id="line2d_18">
      <g>
       <use style="stroke:#000000;stroke-width:0.8;" x="777.6" xlink:href="#m63026f783c" y="174.584348"/>
      </g>
     </g>
     <g id="text_17">
      <!-- 60% -->
      <g transform="translate(784.6 178.383567)scale(0.1 -0.1)">
       <use xlink:href="#DejaVuSans-54"/>
       <use x="63.623047" xlink:href="#DejaVuSans-48"/>
       <use x="127.246094" xlink:href="#DejaVuSans-37"/>
      </g>
     </g>
    </g>
    <g id="ytick_12">
     <g id="line2d_19">
      <g>
       <use style="stroke:#000000;stroke-width:0.8;" x="777.6" xlink:href="#m63026f783c" y="150.949565"/>
      </g>
     </g>
     <g id="text_18">
      <!-- 80% -->
      <defs>
       <path d="M 31.78125 34.625 
Q 24.75 34.625 20.71875 30.859375 
Q 16.703125 27.09375 16.703125 20.515625 
Q 16.703125 13.921875 20.71875 10.15625 
Q 24.75 6.390625 31.78125 6.390625 
Q 38.8125 6.390625 42.859375 10.171875 
Q 46.921875 13.96875 46.921875 20.515625 
Q 46.921875 27.09375 42.890625 30.859375 
Q 38.875 34.625 31.78125 34.625 
z
M 21.921875 38.8125 
Q 15.578125 40.375 12.03125 44.71875 
Q 8.5 49.078125 8.5 55.328125 
Q 8.5 64.0625 14.71875 69.140625 
Q 20.953125 74.21875 31.78125 74.21875 
Q 42.671875 74.21875 48.875 69.140625 
Q 55.078125 64.0625 55.078125 55.328125 
Q 55.078125 49.078125 51.53125 44.71875 
Q 48 40.375 41.703125 38.8125 
Q 48.828125 37.15625 52.796875 32.3125 
Q 56.78125 27.484375 56.78125 20.515625 
Q 56.78125 9.90625 50.3125 4.234375 
Q 43.84375 -1.421875 31.78125 -1.421875 
Q 19.734375 -1.421875 13.25 4.234375 
Q 6.78125 9.90625 6.78125 20.515625 
Q 6.78125 27.484375 10.78125 32.3125 
Q 14.796875 37.15625 21.921875 38.8125 
z
M 18.3125 54.390625 
Q 18.3125 48.734375 21.84375 45.5625 
Q 25.390625 42.390625 31.78125 42.390625 
Q 38.140625 42.390625 41.71875 45.5625 
Q 45.3125 48.734375 45.3125 54.390625 
Q 45.3125 60.0625 41.71875 63.234375 
Q 38.140625 66.40625 31.78125 66.40625 
Q 25.390625 66.40625 21.84375 63.234375 
Q 18.3125 60.0625 18.3125 54.390625 
z
" id="DejaVuSans-56"/>
      </defs>
      <g transform="translate(784.6 154.748784)scale(0.1 -0.1)">
       <use xlink:href="#DejaVuSans-56"/>
       <use x="63.623047" xlink:href="#DejaVuSans-48"/>
       <use x="127.246094" xlink:href="#DejaVuSans-37"/>
      </g>
     </g>
    </g>
    <g id="ytick_13">
     <g id="line2d_20">
      <g>
       <use style="stroke:#000000;stroke-width:0.8;" x="777.6" xlink:href="#m63026f783c" y="127.314783"/>
      </g>
     </g>
     <g id="text_19">
      <!-- 100% -->
      <g transform="translate(784.6 131.114001)scale(0.1 -0.1)">
       <use xlink:href="#DejaVuSans-49"/>
       <use x="63.623047" xlink:href="#DejaVuSans-48"/>
       <use x="127.246094" xlink:href="#DejaVuSans-48"/>
       <use x="190.869141" xlink:href="#DejaVuSans-37"/>
      </g>
     </g>
    </g>
    <g id="text_20">
     <!-- % of total WtE emissions -->
     <defs>
      <path d="M 37.109375 75.984375 
L 37.109375 68.5 
L 28.515625 68.5 
Q 23.6875 68.5 21.796875 66.546875 
Q 19.921875 64.59375 19.921875 59.515625 
L 19.921875 54.6875 
L 34.71875 54.6875 
L 34.71875 47.703125 
L 19.921875 47.703125 
L 19.921875 0 
L 10.890625 0 
L 10.890625 47.703125 
L 2.296875 47.703125 
L 2.296875 54.6875 
L 10.890625 54.6875 
L 10.890625 58.5 
Q 10.890625 67.625 15.140625 71.796875 
Q 19.390625 75.984375 28.609375 75.984375 
z
" id="DejaVuSans-102"/>
      <path d="M 9.421875 75.984375 
L 18.40625 75.984375 
L 18.40625 0 
L 9.421875 0 
z
" id="DejaVuSans-108"/>
     </defs>
     <g transform="translate(824.7875 236.774192)rotate(-90)scale(0.1 -0.1)">
      <use xlink:href="#DejaVuSans-37"/>
      <use x="95.019531" xlink:href="#DejaVuSans-32"/>
      <use x="126.806641" xlink:href="#DejaVuSans-111"/>
      <use x="187.988281" xlink:href="#DejaVuSans-102"/>
      <use x="223.193359" xlink:href="#DejaVuSans-32"/>
      <use x="254.980469" xlink:href="#DejaVuSans-116"/>
      <use x="294.189453" xlink:href="#DejaVuSans-111"/>
      <use x="355.371094" xlink:href="#DejaVuSans-116"/>
      <use x="394.580078" xlink:href="#DejaVuSans-97"/>
      <use x="455.859375" xlink:href="#DejaVuSans-108"/>
      <use x="483.642578" xlink:href="#DejaVuSans-32"/>
      <use x="515.429688" xlink:href="#DejaVuSans-87"/>
      <use x="614.306641" xlink:href="#DejaVuSans-116"/>
      <use x="653.515625" xlink:href="#DejaVuSans-69"/>
      <use x="716.699219" xlink:href="#DejaVuSans-32"/>
      <use x="748.486328" xlink:href="#DejaVuSans-101"/>
      <use x="810.009766" xlink:href="#DejaVuSans-109"/>
      <use x="907.421875" xlink:href="#DejaVuSans-105"/>
      <use x="935.205078" xlink:href="#DejaVuSans-115"/>
      <use x="987.304688" xlink:href="#DejaVuSans-115"/>
      <use x="1039.404297" xlink:href="#DejaVuSans-105"/>
      <use x="1067.1875" xlink:href="#DejaVuSans-111"/>
      <use x="1128.369141" xlink:href="#DejaVuSans-110"/>
      <use x="1191.748047" xlink:href="#DejaVuSans-115"/>
     </g>
    </g>
   </g>
   <g id="patch_24">
    <path d="M 108 245.488696 
L 108 103.68 
" style="fill:none;stroke:#000000;stroke-linecap:square;stroke-linejoin:miter;stroke-width:0.8;"/>
   </g>
   <g id="patch_25">
    <path d="M 777.6 245.488696 
L 777.6 103.68 
" style="fill:none;stroke:#000000;stroke-linecap:square;stroke-linejoin:miter;stroke-width:0.8;"/>
   </g>
   <g id="patch_26">
    <path d="M 108 245.488696 
L 777.6 245.488696 
" style="fill:none;stroke:#000000;stroke-linecap:square;stroke-linejoin:miter;stroke-width:0.8;"/>
   </g>
   <g id="patch_27">
    <path d="M 108 103.68 
L 777.6 103.68 
" style="fill:none;stroke:#000000;stroke-linecap:square;stroke-linejoin:miter;stroke-width:0.8;"/>
   </g>
  </g>
  <g id="axes_3">
   <g id="patch_28">
    <path d="M 108 415.65913 
L 777.6 415.65913 
L 777.6 273.850435 
L 108 273.850435 
z
" style="fill:#ffffff;"/>
   </g>
   <g id="matplotlib.axis_4">
    <g id="xtick_4">
     <g id="line2d_21">
      <path clip-path="url(#pc25f6def6b)" d="M 108 415.65913 
L 108 273.850435 
" style="fill:none;stroke:#b0b0b0;stroke-linecap:square;stroke-width:0.8;"/>
     </g>
     <g id="line2d_22">
      <g>
       <use style="stroke:#000000;stroke-width:0.8;" x="108" xlink:href="#ma7f058cb78" y="415.65913"/>
      </g>
     </g>
    </g>
    <g id="xtick_5">
     <g id="line2d_23">
      <path clip-path="url(#pc25f6def6b)" d="M 331.2 415.65913 
L 331.2 273.850435 
" style="fill:none;stroke:#b0b0b0;stroke-linecap:square;stroke-width:0.8;"/>
     </g>
     <g id="line2d_24">
      <g>
       <use style="stroke:#000000;stroke-width:0.8;" x="331.2" xlink:href="#ma7f058cb78" y="415.65913"/>
      </g>
     </g>
    </g>
    <g id="xtick_6">
     <g id="line2d_25">
      <path clip-path="url(#pc25f6def6b)" d="M 554.4 415.65913 
L 554.4 273.850435 
" style="fill:none;stroke:#b0b0b0;stroke-linecap:square;stroke-width:0.8;"/>
     </g>
     <g id="line2d_26">
      <g>
       <use style="stroke:#000000;stroke-width:0.8;" x="554.4" xlink:href="#ma7f058cb78" y="415.65913"/>
      </g>
     </g>
    </g>
   </g>
   <g id="matplotlib.axis_5">
    <g id="ytick_14">
     <g id="line2d_27">
      <g>
       <use style="stroke:#000000;stroke-width:0.8;" x="108" xlink:href="#m0d2af0e710" y="391.586677"/>
      </g>
     </g>
     <g id="text_21">
      <!-- 200 -->
      <defs>
       <path d="M 10.59375 35.5 
L 73.1875 35.5 
L 73.1875 27.203125 
L 10.59375 27.203125 
z
" id="DejaVuSans-8722"/>
      </defs>
      <g transform="translate(73.532813 395.385896)scale(0.1 -0.1)">
       <use xlink:href="#DejaVuSans-8722"/>
       <use x="83.789062" xlink:href="#DejaVuSans-50"/>
       <use x="147.412109" xlink:href="#DejaVuSans-48"/>
       <use x="211.035156" xlink:href="#DejaVuSans-48"/>
      </g>
     </g>
    </g>
    <g id="ytick_15">
     <g id="line2d_28">
      <g>
       <use style="stroke:#000000;stroke-width:0.8;" x="108" xlink:href="#m0d2af0e710" y="355.591049"/>
      </g>
     </g>
     <g id="text_22">
      <!-- 100 -->
      <g transform="translate(73.532813 359.390268)scale(0.1 -0.1)">
       <use xlink:href="#DejaVuSans-8722"/>
       <use x="83.789062" xlink:href="#DejaVuSans-49"/>
       <use x="147.412109" xlink:href="#DejaVuSans-48"/>
       <use x="211.035156" xlink:href="#DejaVuSans-48"/>
      </g>
     </g>
    </g>
    <g id="ytick_16">
     <g id="line2d_29">
      <g>
       <use style="stroke:#000000;stroke-width:0.8;" x="108" xlink:href="#m0d2af0e710" y="319.595421"/>
      </g>
     </g>
     <g id="text_23">
      <!-- 0 -->
      <g transform="translate(94.6375 323.39464)scale(0.1 -0.1)">
       <use xlink:href="#DejaVuSans-48"/>
      </g>
     </g>
    </g>
    <g id="ytick_17">
     <g id="line2d_30">
      <g>
       <use style="stroke:#000000;stroke-width:0.8;" x="108" xlink:href="#m0d2af0e710" y="283.599793"/>
      </g>
     </g>
     <g id="text_24">
      <!-- 100 -->
      <g transform="translate(81.9125 287.399012)scale(0.1 -0.1)">
       <use xlink:href="#DejaVuSans-49"/>
       <use x="63.623047" xlink:href="#DejaVuSans-48"/>
       <use x="127.246094" xlink:href="#DejaVuSans-48"/>
      </g>
     </g>
    </g>
    <g id="text_25">
     <!-- Cost [EUR/tCO2] -->
     <defs>
      <path d="M 8.6875 72.90625 
L 18.609375 72.90625 
L 18.609375 28.609375 
Q 18.609375 16.890625 22.84375 11.734375 
Q 27.09375 6.59375 36.625 6.59375 
Q 46.09375 6.59375 50.34375 11.734375 
Q 54.59375 16.890625 54.59375 28.609375 
L 54.59375 72.90625 
L 64.5 72.90625 
L 64.5 27.390625 
Q 64.5 13.140625 57.4375 5.859375 
Q 50.390625 -1.421875 36.625 -1.421875 
Q 22.796875 -1.421875 15.734375 5.859375 
Q 8.6875 13.140625 8.6875 27.390625 
z
" id="DejaVuSans-85"/>
      <path d="M 44.390625 34.1875 
Q 47.5625 33.109375 50.5625 29.59375 
Q 53.5625 26.078125 56.59375 19.921875 
L 66.609375 0 
L 56 0 
L 46.6875 18.703125 
Q 43.0625 26.03125 39.671875 28.421875 
Q 36.28125 30.8125 30.421875 30.8125 
L 19.671875 30.8125 
L 19.671875 0 
L 9.8125 0 
L 9.8125 72.90625 
L 32.078125 72.90625 
Q 44.578125 72.90625 50.734375 67.671875 
Q 56.890625 62.453125 56.890625 51.90625 
Q 56.890625 45.015625 53.6875 40.46875 
Q 50.484375 35.9375 44.390625 34.1875 
z
M 19.671875 64.796875 
L 19.671875 38.921875 
L 32.078125 38.921875 
Q 39.203125 38.921875 42.84375 42.21875 
Q 46.484375 45.515625 46.484375 51.90625 
Q 46.484375 58.296875 42.84375 61.546875 
Q 39.203125 64.796875 32.078125 64.796875 
z
" id="DejaVuSans-82"/>
      <path d="M 39.40625 66.21875 
Q 28.65625 66.21875 22.328125 58.203125 
Q 16.015625 50.203125 16.015625 36.375 
Q 16.015625 22.609375 22.328125 14.59375 
Q 28.65625 6.59375 39.40625 6.59375 
Q 50.140625 6.59375 56.421875 14.59375 
Q 62.703125 22.609375 62.703125 36.375 
Q 62.703125 50.203125 56.421875 58.203125 
Q 50.140625 66.21875 39.40625 66.21875 
z
M 39.40625 74.21875 
Q 54.734375 74.21875 63.90625 63.9375 
Q 73.09375 53.65625 73.09375 36.375 
Q 73.09375 19.140625 63.90625 8.859375 
Q 54.734375 -1.421875 39.40625 -1.421875 
Q 24.03125 -1.421875 14.8125 8.828125 
Q 5.609375 19.09375 5.609375 36.375 
Q 5.609375 53.65625 14.8125 63.9375 
Q 24.03125 74.21875 39.40625 74.21875 
z
" id="DejaVuSans-79"/>
     </defs>
     <g transform="translate(67.453125 385.907126)rotate(-90)scale(0.1 -0.1)">
      <use xlink:href="#DejaVuSans-67"/>
      <use x="69.824219" xlink:href="#DejaVuSans-111"/>
      <use x="131.005859" xlink:href="#DejaVuSans-115"/>
      <use x="183.105469" xlink:href="#DejaVuSans-116"/>
      <use x="222.314453" xlink:href="#DejaVuSans-32"/>
      <use x="254.101562" xlink:href="#DejaVuSans-91"/>
      <use x="293.115234" xlink:href="#DejaVuSans-69"/>
      <use x="356.298828" xlink:href="#DejaVuSans-85"/>
      <use x="429.492188" xlink:href="#DejaVuSans-82"/>
      <use x="498.974609" xlink:href="#DejaVuSans-47"/>
      <use x="532.666016" xlink:href="#DejaVuSans-116"/>
      <use x="571.875" xlink:href="#DejaVuSans-67"/>
      <use x="641.699219" xlink:href="#DejaVuSans-79"/>
      <use x="720.410156" xlink:href="#DejaVuSans-50"/>
      <use x="784.033203" xlink:href="#DejaVuSans-93"/>
     </g>
    </g>
   </g>
   <g id="LineCollection_4">
    <path clip-path="url(#pc25f6def6b)" d="M 108 409.213281 
L 331.2 409.213281 
" style="fill:none;stroke:#800080;stroke-dasharray:5.55,2.4;stroke-dashoffset:0;stroke-width:1.5;"/>
   </g>
   <g id="LineCollection_5">
    <path clip-path="url(#pc25f6def6b)" d="M 108 280.296285 
L 331.2 280.296285 
" style="fill:none;stroke:#ff0000;stroke-width:1.5;"/>
   </g>
   <g id="patch_29">
    <path d="M 108 415.65913 
L 108 273.850435 
" style="fill:none;stroke:#000000;stroke-linecap:square;stroke-linejoin:miter;stroke-width:0.8;"/>
   </g>
   <g id="patch_30">
    <path d="M 777.6 415.65913 
L 777.6 273.850435 
" style="fill:none;stroke:#000000;stroke-linecap:square;stroke-linejoin:miter;stroke-width:0.8;"/>
   </g>
   <g id="patch_31">
    <path d="M 108 415.65913 
L 777.6 415.65913 
" style="fill:none;stroke:#000000;stroke-linecap:square;stroke-linejoin:miter;stroke-width:0.8;"/>
   </g>
   <g id="patch_32">
    <path d="M 108 273.850435 
L 777.6 273.850435 
" style="fill:none;stroke:#000000;stroke-linecap:square;stroke-linejoin:miter;stroke-width:0.8;"/>
   </g>
   <g id="legend_2">
    <g id="patch_33">
     <path d="M 635.676563 311.206685 
L 770.6 311.206685 
Q 772.6 311.206685 772.6 309.206685 
L 772.6 280.850435 
Q 772.6 278.850435 770.6 278.850435 
L 635.676563 278.850435 
Q 633.676563 278.850435 633.676563 280.850435 
L 633.676563 309.206685 
Q 633.676563 311.206685 635.676563 311.206685 
z
" style="fill:#ffffff;opacity:0.8;stroke:#cccccc;stroke-linejoin:miter;"/>
    </g>
    <g id="line2d_31">
     <path d="M 637.676563 286.948872 
L 657.676563 286.948872 
" style="fill:none;stroke:#800080;stroke-dasharray:5.55,2.4;stroke-dashoffset:0;stroke-width:1.5;"/>
    </g>
    <g id="text_26">
     <!-- Carbon avoided cost -->
     <defs>
      <path d="M 48.6875 27.296875 
Q 48.6875 37.203125 44.609375 42.84375 
Q 40.53125 48.484375 33.40625 48.484375 
Q 26.265625 48.484375 22.1875 42.84375 
Q 18.109375 37.203125 18.109375 27.296875 
Q 18.109375 17.390625 22.1875 11.75 
Q 26.265625 6.109375 33.40625 6.109375 
Q 40.53125 6.109375 44.609375 11.75 
Q 48.6875 17.390625 48.6875 27.296875 
z
M 18.109375 46.390625 
Q 20.953125 51.265625 25.265625 53.625 
Q 29.59375 56 35.59375 56 
Q 45.5625 56 51.78125 48.09375 
Q 58.015625 40.1875 58.015625 27.296875 
Q 58.015625 14.40625 51.78125 6.484375 
Q 45.5625 -1.421875 35.59375 -1.421875 
Q 29.59375 -1.421875 25.265625 0.953125 
Q 20.953125 3.328125 18.109375 8.203125 
L 18.109375 0 
L 9.078125 0 
L 9.078125 75.984375 
L 18.109375 75.984375 
z
" id="DejaVuSans-98"/>
      <path d="M 2.984375 54.6875 
L 12.5 54.6875 
L 29.59375 8.796875 
L 46.6875 54.6875 
L 56.203125 54.6875 
L 35.6875 0 
L 23.484375 0 
z
" id="DejaVuSans-118"/>
      <path d="M 48.78125 52.59375 
L 48.78125 44.1875 
Q 44.96875 46.296875 41.140625 47.34375 
Q 37.3125 48.390625 33.40625 48.390625 
Q 24.65625 48.390625 19.8125 42.84375 
Q 14.984375 37.3125 14.984375 27.296875 
Q 14.984375 17.28125 19.8125 11.734375 
Q 24.65625 6.203125 33.40625 6.203125 
Q 37.3125 6.203125 41.140625 7.25 
Q 44.96875 8.296875 48.78125 10.40625 
L 48.78125 2.09375 
Q 45.015625 0.34375 40.984375 -0.53125 
Q 36.96875 -1.421875 32.421875 -1.421875 
Q 20.0625 -1.421875 12.78125 6.34375 
Q 5.515625 14.109375 5.515625 27.296875 
Q 5.515625 40.671875 12.859375 48.328125 
Q 20.21875 56 33.015625 56 
Q 37.15625 56 41.109375 55.140625 
Q 45.0625 54.296875 48.78125 52.59375 
z
" id="DejaVuSans-99"/>
     </defs>
     <g transform="translate(665.676563 290.448872)scale(0.1 -0.1)">
      <use xlink:href="#DejaVuSans-67"/>
      <use x="69.824219" xlink:href="#DejaVuSans-97"/>
      <use x="131.103516" xlink:href="#DejaVuSans-114"/>
      <use x="172.216797" xlink:href="#DejaVuSans-98"/>
      <use x="235.693359" xlink:href="#DejaVuSans-111"/>
      <use x="296.875" xlink:href="#DejaVuSans-110"/>
      <use x="360.253906" xlink:href="#DejaVuSans-32"/>
      <use x="392.041016" xlink:href="#DejaVuSans-97"/>
      <use x="453.320312" xlink:href="#DejaVuSans-118"/>
      <use x="512.5" xlink:href="#DejaVuSans-111"/>
      <use x="573.681641" xlink:href="#DejaVuSans-105"/>
      <use x="601.464844" xlink:href="#DejaVuSans-100"/>
      <use x="664.941406" xlink:href="#DejaVuSans-101"/>
      <use x="726.464844" xlink:href="#DejaVuSans-100"/>
      <use x="789.941406" xlink:href="#DejaVuSans-32"/>
      <use x="821.728516" xlink:href="#DejaVuSans-99"/>
      <use x="876.708984" xlink:href="#DejaVuSans-111"/>
      <use x="937.890625" xlink:href="#DejaVuSans-115"/>
      <use x="989.990234" xlink:href="#DejaVuSans-116"/>
     </g>
    </g>
    <g id="line2d_32">
     <path d="M 637.676563 301.626997 
L 657.676563 301.626997 
" style="fill:none;stroke:#ff0000;stroke-width:1.5;"/>
    </g>
    <g id="text_27">
     <!-- Carbon stored cost -->
     <g transform="translate(665.676563 305.126997)scale(0.1 -0.1)">
      <use xlink:href="#DejaVuSans-67"/>
      <use x="69.824219" xlink:href="#DejaVuSans-97"/>
      <use x="131.103516" xlink:href="#DejaVuSans-114"/>
      <use x="172.216797" xlink:href="#DejaVuSans-98"/>
      <use x="235.693359" xlink:href="#DejaVuSans-111"/>
      <use x="296.875" xlink:href="#DejaVuSans-110"/>
      <use x="360.253906" xlink:href="#DejaVuSans-32"/>
      <use x="392.041016" xlink:href="#DejaVuSans-115"/>
      <use x="444.140625" xlink:href="#DejaVuSans-116"/>
      <use x="483.349609" xlink:href="#DejaVuSans-111"/>
      <use x="544.53125" xlink:href="#DejaVuSans-114"/>
      <use x="583.394531" xlink:href="#DejaVuSans-101"/>
      <use x="644.917969" xlink:href="#DejaVuSans-100"/>
      <use x="708.394531" xlink:href="#DejaVuSans-32"/>
      <use x="740.181641" xlink:href="#DejaVuSans-99"/>
      <use x="795.162109" xlink:href="#DejaVuSans-111"/>
      <use x="856.34375" xlink:href="#DejaVuSans-115"/>
      <use x="908.443359" xlink:href="#DejaVuSans-116"/>
     </g>
    </g>
   </g>
  </g>
  <g id="axes_4">
   <g id="patch_34">
    <path d="M 108 585.829565 
L 777.6 585.829565 
L 777.6 444.02087 
L 108 444.02087 
z
" style="fill:#ffffff;"/>
   </g>
   <g id="patch_35">
    <path clip-path="url(#p8c659c0c9a)" d="M 139.885714 585.829565 
L 171.771429 585.829565 
L 171.771429 450.773665 
L 139.885714 450.773665 
z
" style="fill:#008000;"/>
   </g>
   <g id="patch_36">
    <path clip-path="url(#p8c659c0c9a)" d="M 363.085714 585.829565 
L 394.971429 585.829565 
L 394.971429 450.773665 
L 363.085714 450.773665 
z
" style="fill:#008000;"/>
   </g>
   <g id="patch_37">
    <path clip-path="url(#p8c659c0c9a)" d="M 586.285714 585.829565 
L 618.171429 585.829565 
L 618.171429 450.773665 
L 586.285714 450.773665 
z
" style="fill:#008000;"/>
   </g>
   <g id="patch_38">
    <path clip-path="url(#p8c659c0c9a)" d="M 139.885714 585.829565 
L 171.771429 585.829565 
L 171.771429 451.996803 
L 139.885714 451.996803 
z
" style="fill:#ffff00;"/>
   </g>
   <g id="patch_39">
    <path clip-path="url(#p8c659c0c9a)" d="M 363.085714 585.829565 
L 394.971429 585.829565 
L 394.971429 451.996803 
L 363.085714 451.996803 
z
" style="fill:#ffff00;"/>
   </g>
   <g id="patch_40">
    <path clip-path="url(#p8c659c0c9a)" d="M 586.285714 585.829565 
L 618.171429 585.829565 
L 618.171429 451.996803 
L 586.285714 451.996803 
z
" style="fill:#ffff00;"/>
   </g>
   <g id="patch_41">
    <path clip-path="url(#p8c659c0c9a)" d="M 139.885714 585.829565 
L 171.771429 585.829565 
L 171.771429 467.078224 
L 139.885714 467.078224 
z
" style="fill:#0000ff;"/>
   </g>
   <g id="patch_42">
    <path clip-path="url(#p8c659c0c9a)" d="M 363.085714 585.829565 
L 394.971429 585.829565 
L 394.971429 467.078224 
L 363.085714 467.078224 
z
" style="fill:#0000ff;"/>
   </g>
   <g id="patch_43">
    <path clip-path="url(#p8c659c0c9a)" d="M 586.285714 585.829565 
L 618.171429 585.829565 
L 618.171429 467.078224 
L 586.285714 467.078224 
z
" style="fill:#0000ff;"/>
   </g>
   <g id="patch_44">
    <path clip-path="url(#p8c659c0c9a)" d="M 203.657143 585.829565 
L 235.542857 585.829565 
L 235.542857 500.768765 
L 203.657143 500.768765 
z
" style="fill:#008000;"/>
   </g>
   <g id="patch_45">
    <path clip-path="url(#p8c659c0c9a)" d="M 426.857143 585.829565 
L 458.742857 585.829565 
L 458.742857 500.768765 
L 426.857143 500.768765 
z
" style="fill:#008000;"/>
   </g>
   <g id="patch_46">
    <path clip-path="url(#p8c659c0c9a)" d="M 650.057143 585.829565 
L 681.942857 585.829565 
L 681.942857 500.768765 
L 650.057143 500.768765 
z
" style="fill:#008000;"/>
   </g>
   <g id="patch_47">
    <path clip-path="url(#p8c659c0c9a)" d="M 203.657143 585.829565 
L 235.542857 585.829565 
L 235.542857 500.768765 
L 203.657143 500.768765 
z
" style="fill:#ffff00;"/>
   </g>
   <g id="patch_48">
    <path clip-path="url(#p8c659c0c9a)" d="M 426.857143 585.829565 
L 458.742857 585.829565 
L 458.742857 500.768765 
L 426.857143 500.768765 
z
" style="fill:#ffff00;"/>
   </g>
   <g id="patch_49">
    <path clip-path="url(#p8c659c0c9a)" d="M 650.057143 585.829565 
L 681.942857 585.829565 
L 681.942857 500.768765 
L 650.057143 500.768765 
z
" style="fill:#ffff00;"/>
   </g>
   <g id="patch_50">
    <path clip-path="url(#p8c659c0c9a)" d="M 203.657143 585.829565 
L 235.542857 585.829565 
L 235.542857 502.013379 
L 203.657143 502.013379 
z
" style="fill:#0000ff;"/>
   </g>
   <g id="patch_51">
    <path clip-path="url(#p8c659c0c9a)" d="M 426.857143 585.829565 
L 458.742857 585.829565 
L 458.742857 502.013379 
L 426.857143 502.013379 
z
" style="fill:#0000ff;"/>
   </g>
   <g id="patch_52">
    <path clip-path="url(#p8c659c0c9a)" d="M 650.057143 585.829565 
L 681.942857 585.829565 
L 681.942857 502.013379 
L 650.057143 502.013379 
z
" style="fill:#0000ff;"/>
   </g>
   <g id="patch_53">
    <path clip-path="url(#p8c659c0c9a)" d="M 267.428571 585.829565 
L 299.314286 585.829565 
L 299.314286 561.324042 
L 267.428571 561.324042 
z
" style="fill:#008000;"/>
   </g>
   <g id="patch_54">
    <path clip-path="url(#p8c659c0c9a)" d="M 490.628571 585.829565 
L 522.514286 585.829565 
L 522.514286 561.324042 
L 490.628571 561.324042 
z
" style="fill:#008000;"/>
   </g>
   <g id="patch_55">
    <path clip-path="url(#p8c659c0c9a)" d="M 713.828571 585.829565 
L 745.714286 585.829565 
L 745.714286 561.324042 
L 713.828571 561.324042 
z
" style="fill:#008000;"/>
   </g>
   <g id="patch_56">
    <path clip-path="url(#p8c659c0c9a)" d="M 267.428571 585.829565 
L 299.314286 585.829565 
L 299.314286 573.199174 
L 267.428571 573.199174 
z
" style="fill:#ffff00;"/>
   </g>
   <g id="patch_57">
    <path clip-path="url(#p8c659c0c9a)" d="M 490.628571 585.829565 
L 522.514286 585.829565 
L 522.514286 573.199174 
L 490.628571 573.199174 
z
" style="fill:#ffff00;"/>
   </g>
   <g id="patch_58">
    <path clip-path="url(#p8c659c0c9a)" d="M 713.828571 585.829565 
L 745.714286 585.829565 
L 745.714286 573.199174 
L 713.828571 573.199174 
z
" style="fill:#ffff00;"/>
   </g>
   <g id="patch_59">
    <path clip-path="url(#p8c659c0c9a)" d="M 267.428571 585.829565 
L 299.314286 585.829565 
L 299.314286 573.954433 
L 267.428571 573.954433 
z
" style="fill:#0000ff;"/>
   </g>
   <g id="patch_60">
    <path clip-path="url(#p8c659c0c9a)" d="M 490.628571 585.829565 
L 522.514286 585.829565 
L 522.514286 573.954433 
L 490.628571 573.954433 
z
" style="fill:#0000ff;"/>
   </g>
   <g id="patch_61">
    <path clip-path="url(#p8c659c0c9a)" d="M 713.828571 585.829565 
L 745.714286 585.829565 
L 745.714286 573.954433 
L 713.828571 573.954433 
z
" style="fill:#0000ff;"/>
   </g>
   <g id="matplotlib.axis_6">
    <g id="xtick_7">
     <g id="line2d_33">
      <path clip-path="url(#p8c659c0c9a)" d="M 108 585.829565 
L 108 444.02087 
" style="fill:none;stroke:#b0b0b0;stroke-linecap:square;stroke-width:0.8;"/>
     </g>
     <g id="line2d_34">
      <g>
       <use style="stroke:#000000;stroke-width:0.8;" x="108" xlink:href="#ma7f058cb78" y="585.829565"/>
      </g>
     </g>
    </g>
    <g id="xtick_8">
     <g id="line2d_35">
      <path clip-path="url(#p8c659c0c9a)" d="M 331.2 585.829565 
L 331.2 444.02087 
" style="fill:none;stroke:#b0b0b0;stroke-linecap:square;stroke-width:0.8;"/>
     </g>
     <g id="line2d_36">
      <g>
       <use style="stroke:#000000;stroke-width:0.8;" x="331.2" xlink:href="#ma7f058cb78" y="585.829565"/>
      </g>
     </g>
    </g>
    <g id="xtick_9">
     <g id="line2d_37">
      <path clip-path="url(#p8c659c0c9a)" d="M 554.4 585.829565 
L 554.4 444.02087 
" style="fill:none;stroke:#b0b0b0;stroke-linecap:square;stroke-width:0.8;"/>
     </g>
     <g id="line2d_38">
      <g>
       <use style="stroke:#000000;stroke-width:0.8;" x="554.4" xlink:href="#ma7f058cb78" y="585.829565"/>
      </g>
     </g>
    </g>
   </g>
   <g id="matplotlib.axis_7">
    <g id="ytick_18">
     <g id="line2d_39">
      <g>
       <use style="stroke:#000000;stroke-width:0.8;" x="108" xlink:href="#m0d2af0e710" y="585.829565"/>
      </g>
     </g>
     <g id="text_28">
      <!-- 0 -->
      <g transform="translate(94.6375 589.628784)scale(0.1 -0.1)">
       <use xlink:href="#DejaVuSans-48"/>
      </g>
     </g>
    </g>
    <g id="ytick_19">
     <g id="line2d_40">
      <g>
       <use style="stroke:#000000;stroke-width:0.8;" x="108" xlink:href="#m0d2af0e710" y="562.0793"/>
      </g>
     </g>
     <g id="text_29">
      <!-- 10 -->
      <g transform="translate(88.275 565.878519)scale(0.1 -0.1)">
       <use xlink:href="#DejaVuSans-49"/>
       <use x="63.623047" xlink:href="#DejaVuSans-48"/>
      </g>
     </g>
    </g>
    <g id="ytick_20">
     <g id="line2d_41">
      <g>
       <use style="stroke:#000000;stroke-width:0.8;" x="108" xlink:href="#m0d2af0e710" y="538.329035"/>
      </g>
     </g>
     <g id="text_30">
      <!-- 20 -->
      <g transform="translate(88.275 542.128254)scale(0.1 -0.1)">
       <use xlink:href="#DejaVuSans-50"/>
       <use x="63.623047" xlink:href="#DejaVuSans-48"/>
      </g>
     </g>
    </g>
    <g id="ytick_21">
     <g id="line2d_42">
      <g>
       <use style="stroke:#000000;stroke-width:0.8;" x="108" xlink:href="#m0d2af0e710" y="514.57877"/>
      </g>
     </g>
     <g id="text_31">
      <!-- 30 -->
      <g transform="translate(88.275 518.377989)scale(0.1 -0.1)">
       <use xlink:href="#DejaVuSans-51"/>
       <use x="63.623047" xlink:href="#DejaVuSans-48"/>
      </g>
     </g>
    </g>
    <g id="ytick_22">
     <g id="line2d_43">
      <g>
       <use style="stroke:#000000;stroke-width:0.8;" x="108" xlink:href="#m0d2af0e710" y="490.828505"/>
      </g>
     </g>
     <g id="text_32">
      <!-- 40 -->
      <g transform="translate(88.275 494.627723)scale(0.1 -0.1)">
       <use xlink:href="#DejaVuSans-52"/>
       <use x="63.623047" xlink:href="#DejaVuSans-48"/>
      </g>
     </g>
    </g>
    <g id="ytick_23">
     <g id="line2d_44">
      <g>
       <use style="stroke:#000000;stroke-width:0.8;" x="108" xlink:href="#m0d2af0e710" y="467.07824"/>
      </g>
     </g>
     <g id="text_33">
      <!-- 50 -->
      <g transform="translate(88.275 470.877458)scale(0.1 -0.1)">
       <use xlink:href="#DejaVuSans-53"/>
       <use x="63.623047" xlink:href="#DejaVuSans-48"/>
      </g>
     </g>
    </g>
    <g id="text_34">
     <!-- Cost [EUR/tCO2] -->
     <g transform="translate(82.195312 556.077561)rotate(-90)scale(0.1 -0.1)">
      <use xlink:href="#DejaVuSans-67"/>
      <use x="69.824219" xlink:href="#DejaVuSans-111"/>
      <use x="131.005859" xlink:href="#DejaVuSans-115"/>
      <use x="183.105469" xlink:href="#DejaVuSans-116"/>
      <use x="222.314453" xlink:href="#DejaVuSans-32"/>
      <use x="254.101562" xlink:href="#DejaVuSans-91"/>
      <use x="293.115234" xlink:href="#DejaVuSans-69"/>
      <use x="356.298828" xlink:href="#DejaVuSans-85"/>
      <use x="429.492188" xlink:href="#DejaVuSans-82"/>
      <use x="498.974609" xlink:href="#DejaVuSans-47"/>
      <use x="532.666016" xlink:href="#DejaVuSans-116"/>
      <use x="571.875" xlink:href="#DejaVuSans-67"/>
      <use x="641.699219" xlink:href="#DejaVuSans-79"/>
      <use x="720.410156" xlink:href="#DejaVuSans-50"/>
      <use x="784.033203" xlink:href="#DejaVuSans-93"/>
     </g>
    </g>
   </g>
   <g id="patch_62">
    <path d="M 108 585.829565 
L 108 444.02087 
" style="fill:none;stroke:#000000;stroke-linecap:square;stroke-linejoin:miter;stroke-width:0.8;"/>
   </g>
   <g id="patch_63">
    <path d="M 777.6 585.829565 
L 777.6 444.02087 
" style="fill:none;stroke:#000000;stroke-linecap:square;stroke-linejoin:miter;stroke-width:0.8;"/>
   </g>
   <g id="patch_64">
    <path d="M 108 585.829565 
L 777.6 585.829565 
" style="fill:none;stroke:#000000;stroke-linecap:square;stroke-linejoin:miter;stroke-width:0.8;"/>
   </g>
   <g id="patch_65">
    <path d="M 108 444.02087 
L 777.6 444.02087 
" style="fill:none;stroke:#000000;stroke-linecap:square;stroke-linejoin:miter;stroke-width:0.8;"/>
   </g>
   <g id="legend_3">
    <g id="patch_66">
     <path d="M 674.2 496.055245 
L 770.6 496.055245 
Q 772.6 496.055245 772.6 494.055245 
L 772.6 451.02087 
Q 772.6 449.02087 770.6 449.02087 
L 674.2 449.02087 
Q 672.2 449.02087 672.2 451.02087 
L 672.2 494.055245 
Q 672.2 496.055245 674.2 496.055245 
z
" style="fill:#ffffff;opacity:0.8;stroke:#cccccc;stroke-linejoin:miter;"/>
    </g>
    <g id="patch_67">
     <path d="M 676.2 460.619307 
L 696.2 460.619307 
L 696.2 453.619307 
L 676.2 453.619307 
z
" style="fill:#008000;"/>
    </g>
    <g id="text_35">
     <!-- Maintenance -->
     <g transform="translate(704.2 460.619307)scale(0.1 -0.1)">
      <use xlink:href="#DejaVuSans-77"/>
      <use x="86.279297" xlink:href="#DejaVuSans-97"/>
      <use x="147.558594" xlink:href="#DejaVuSans-105"/>
      <use x="175.341797" xlink:href="#DejaVuSans-110"/>
      <use x="238.720703" xlink:href="#DejaVuSans-116"/>
      <use x="277.929688" xlink:href="#DejaVuSans-101"/>
      <use x="339.453125" xlink:href="#DejaVuSans-110"/>
      <use x="402.832031" xlink:href="#DejaVuSans-97"/>
      <use x="464.111328" xlink:href="#DejaVuSans-110"/>
      <use x="527.490234" xlink:href="#DejaVuSans-99"/>
      <use x="582.470703" xlink:href="#DejaVuSans-101"/>
     </g>
    </g>
    <g id="patch_68">
     <path d="M 676.2 475.297432 
L 696.2 475.297432 
L 696.2 468.297432 
L 676.2 468.297432 
z
" style="fill:#ffff00;"/>
    </g>
    <g id="text_36">
     <!-- Operation -->
     <g transform="translate(704.2 475.297432)scale(0.1 -0.1)">
      <use xlink:href="#DejaVuSans-79"/>
      <use x="78.710938" xlink:href="#DejaVuSans-112"/>
      <use x="142.1875" xlink:href="#DejaVuSans-101"/>
      <use x="203.710938" xlink:href="#DejaVuSans-114"/>
      <use x="244.824219" xlink:href="#DejaVuSans-97"/>
      <use x="306.103516" xlink:href="#DejaVuSans-116"/>
      <use x="345.3125" xlink:href="#DejaVuSans-105"/>
      <use x="373.095703" xlink:href="#DejaVuSans-111"/>
      <use x="434.277344" xlink:href="#DejaVuSans-110"/>
     </g>
    </g>
    <g id="patch_69">
     <path d="M 676.2 489.975557 
L 696.2 489.975557 
L 696.2 482.975557 
L 676.2 482.975557 
z
" style="fill:#0000ff;"/>
    </g>
    <g id="text_37">
     <!-- Investment -->
     <defs>
      <path d="M 9.8125 72.90625 
L 19.671875 72.90625 
L 19.671875 0 
L 9.8125 0 
z
" id="DejaVuSans-73"/>
     </defs>
     <g transform="translate(704.2 489.975557)scale(0.1 -0.1)">
      <use xlink:href="#DejaVuSans-73"/>
      <use x="29.492188" xlink:href="#DejaVuSans-110"/>
      <use x="92.871094" xlink:href="#DejaVuSans-118"/>
      <use x="152.050781" xlink:href="#DejaVuSans-101"/>
      <use x="213.574219" xlink:href="#DejaVuSans-115"/>
      <use x="265.673828" xlink:href="#DejaVuSans-116"/>
      <use x="304.882812" xlink:href="#DejaVuSans-109"/>
      <use x="402.294922" xlink:href="#DejaVuSans-101"/>
      <use x="463.818359" xlink:href="#DejaVuSans-110"/>
      <use x="527.197266" xlink:href="#DejaVuSans-116"/>
     </g>
    </g>
   </g>
  </g>
  <g id="axes_5">
   <g id="patch_70">
    <path d="M 108 756 
L 777.6 756 
L 777.6 614.191304 
L 108 614.191304 
z
" style="fill:#ffffff;"/>
   </g>
   <g id="patch_71">
    <path clip-path="url(#p950a53b8ab)" d="M 139.885714 756 
L 171.771429 756 
L 171.771429 620.944099 
L 139.885714 620.944099 
z
" style="fill:#a8322d;"/>
   </g>
   <g id="patch_72">
    <path clip-path="url(#p950a53b8ab)" d="M 363.085714 756 
L 394.971429 756 
L 394.971429 620.944099 
L 363.085714 620.944099 
z
" style="fill:#a8322d;"/>
   </g>
   <g id="patch_73">
    <path clip-path="url(#p950a53b8ab)" d="M 586.285714 756 
L 618.171429 756 
L 618.171429 620.944099 
L 586.285714 620.944099 
z
" style="fill:#a8322d;"/>
   </g>
   <g id="patch_74">
    <path clip-path="url(#p950a53b8ab)" d="M 139.885714 756 
L 171.771429 756 
L 171.771429 729.414193 
L 139.885714 729.414193 
z
" style="fill:#edf8b1;"/>
   </g>
   <g id="patch_75">
    <path clip-path="url(#p950a53b8ab)" d="M 363.085714 756 
L 394.971429 756 
L 394.971429 729.414193 
L 363.085714 729.414193 
z
" style="fill:#edf8b1;"/>
   </g>
   <g id="patch_76">
    <path clip-path="url(#p950a53b8ab)" d="M 586.285714 756 
L 618.171429 756 
L 618.171429 729.414193 
L 586.285714 729.414193 
z
" style="fill:#edf8b1;"/>
   </g>
   <g id="patch_77">
    <path clip-path="url(#p950a53b8ab)" d="M 203.657143 756 
L 235.542857 756 
L 235.542857 744.854339 
L 203.657143 744.854339 
z
" style="fill:#a8322d;"/>
   </g>
   <g id="patch_78">
    <path clip-path="url(#p950a53b8ab)" d="M 426.857143 756 
L 458.742857 756 
L 458.742857 744.854339 
L 426.857143 744.854339 
z
" style="fill:#a8322d;"/>
   </g>
   <g id="patch_79">
    <path clip-path="url(#p950a53b8ab)" d="M 650.057143 756 
L 681.942857 756 
L 681.942857 744.854339 
L 650.057143 744.854339 
z
" style="fill:#a8322d;"/>
   </g>
   <g id="patch_80">
    <path clip-path="url(#p950a53b8ab)" d="M 203.657143 756 
L 235.542857 756 
L 235.542857 744.854339 
L 203.657143 744.854339 
z
" style="fill:#edf8b1;"/>
   </g>
   <g id="patch_81">
    <path clip-path="url(#p950a53b8ab)" d="M 426.857143 756 
L 458.742857 756 
L 458.742857 744.854339 
L 426.857143 744.854339 
z
" style="fill:#edf8b1;"/>
   </g>
   <g id="patch_82">
    <path clip-path="url(#p950a53b8ab)" d="M 650.057143 756 
L 681.942857 756 
L 681.942857 744.854339 
L 650.057143 744.854339 
z
" style="fill:#edf8b1;"/>
   </g>
   <g id="patch_83">
    <path clip-path="url(#p950a53b8ab)" d="M 267.428571 756 
L 299.314286 756 
L 299.314286 749.236572 
L 267.428571 749.236572 
z
" style="fill:#a8322d;"/>
   </g>
   <g id="patch_84">
    <path clip-path="url(#p950a53b8ab)" d="M 490.628571 756 
L 522.514286 756 
L 522.514286 749.236572 
L 490.628571 749.236572 
z
" style="fill:#a8322d;"/>
   </g>
   <g id="patch_85">
    <path clip-path="url(#p950a53b8ab)" d="M 713.828571 756 
L 745.714286 756 
L 745.714286 749.236572 
L 713.828571 749.236572 
z
" style="fill:#a8322d;"/>
   </g>
   <g id="patch_86">
    <path clip-path="url(#p950a53b8ab)" d="M 267.428571 756 
L 299.314286 756 
L 299.314286 756 
L 267.428571 756 
z
" style="fill:#edf8b1;"/>
   </g>
   <g id="patch_87">
    <path clip-path="url(#p950a53b8ab)" d="M 490.628571 756 
L 522.514286 756 
L 522.514286 756 
L 490.628571 756 
z
" style="fill:#edf8b1;"/>
   </g>
   <g id="patch_88">
    <path clip-path="url(#p950a53b8ab)" d="M 713.828571 756 
L 745.714286 756 
L 745.714286 756 
L 713.828571 756 
z
" style="fill:#edf8b1;"/>
   </g>
   <g id="matplotlib.axis_8">
    <g id="xtick_10">
     <g id="line2d_45">
      <g>
       <use style="stroke:#000000;stroke-width:0.8;" x="219.6" xlink:href="#ma7f058cb78" y="756"/>
      </g>
     </g>
     <g id="text_38">
      <!-- 2025 -->
      <g transform="translate(206.875 770.598438)scale(0.1 -0.1)">
       <use xlink:href="#DejaVuSans-50"/>
       <use x="63.623047" xlink:href="#DejaVuSans-48"/>
       <use x="127.246094" xlink:href="#DejaVuSans-50"/>
       <use x="190.869141" xlink:href="#DejaVuSans-53"/>
      </g>
     </g>
    </g>
    <g id="xtick_11">
     <g id="line2d_46">
      <g>
       <use style="stroke:#000000;stroke-width:0.8;" x="442.8" xlink:href="#ma7f058cb78" y="756"/>
      </g>
     </g>
    </g>
    <g id="xtick_12">
     <g id="line2d_47">
      <g>
       <use style="stroke:#000000;stroke-width:0.8;" x="666" xlink:href="#ma7f058cb78" y="756"/>
      </g>
     </g>
     <g id="text_39">
      <!-- 2027 -->
      <defs>
       <path d="M 8.203125 72.90625 
L 55.078125 72.90625 
L 55.078125 68.703125 
L 28.609375 0 
L 18.3125 0 
L 43.21875 64.59375 
L 8.203125 64.59375 
z
" id="DejaVuSans-55"/>
      </defs>
      <g transform="translate(653.275 770.598438)scale(0.1 -0.1)">
       <use xlink:href="#DejaVuSans-50"/>
       <use x="63.623047" xlink:href="#DejaVuSans-48"/>
       <use x="127.246094" xlink:href="#DejaVuSans-50"/>
       <use x="190.869141" xlink:href="#DejaVuSans-55"/>
      </g>
     </g>
    </g>
    <g id="text_40">
     <!-- Years -->
     <defs>
      <path d="M -0.203125 72.90625 
L 10.40625 72.90625 
L 30.609375 42.921875 
L 50.6875 72.90625 
L 61.28125 72.90625 
L 35.5 34.71875 
L 35.5 0 
L 25.59375 0 
L 25.59375 34.71875 
z
" id="DejaVuSans-89"/>
     </defs>
     <g transform="translate(429.607813 784.276563)scale(0.1 -0.1)">
      <use xlink:href="#DejaVuSans-89"/>
      <use x="47.833984" xlink:href="#DejaVuSans-101"/>
      <use x="109.357422" xlink:href="#DejaVuSans-97"/>
      <use x="170.636719" xlink:href="#DejaVuSans-114"/>
      <use x="211.75" xlink:href="#DejaVuSans-115"/>
     </g>
    </g>
   </g>
   <g id="matplotlib.axis_9">
    <g id="ytick_24">
     <g id="line2d_48">
      <g>
       <use style="stroke:#000000;stroke-width:0.8;" x="108" xlink:href="#m0d2af0e710" y="756"/>
      </g>
     </g>
     <g id="text_41">
      <!-- 0 -->
      <g transform="translate(94.6375 759.799219)scale(0.1 -0.1)">
       <use xlink:href="#DejaVuSans-48"/>
      </g>
     </g>
    </g>
    <g id="ytick_25">
     <g id="line2d_49">
      <g>
       <use style="stroke:#000000;stroke-width:0.8;" x="108" xlink:href="#m0d2af0e710" y="734.731357"/>
      </g>
     </g>
     <g id="text_42">
      <!-- 1 -->
      <g transform="translate(94.6375 738.530576)scale(0.1 -0.1)">
       <use xlink:href="#DejaVuSans-49"/>
      </g>
     </g>
    </g>
    <g id="ytick_26">
     <g id="line2d_50">
      <g>
       <use style="stroke:#000000;stroke-width:0.8;" x="108" xlink:href="#m0d2af0e710" y="713.462714"/>
      </g>
     </g>
     <g id="text_43">
      <!-- 2 -->
      <g transform="translate(94.6375 717.261933)scale(0.1 -0.1)">
       <use xlink:href="#DejaVuSans-50"/>
      </g>
     </g>
    </g>
    <g id="ytick_27">
     <g id="line2d_51">
      <g>
       <use style="stroke:#000000;stroke-width:0.8;" x="108" xlink:href="#m0d2af0e710" y="692.194071"/>
      </g>
     </g>
     <g id="text_44">
      <!-- 3 -->
      <g transform="translate(94.6375 695.99329)scale(0.1 -0.1)">
       <use xlink:href="#DejaVuSans-51"/>
      </g>
     </g>
    </g>
    <g id="ytick_28">
     <g id="line2d_52">
      <g>
       <use style="stroke:#000000;stroke-width:0.8;" x="108" xlink:href="#m0d2af0e710" y="670.925428"/>
      </g>
     </g>
     <g id="text_45">
      <!-- 4 -->
      <g transform="translate(94.6375 674.724647)scale(0.1 -0.1)">
       <use xlink:href="#DejaVuSans-52"/>
      </g>
     </g>
    </g>
    <g id="ytick_29">
     <g id="line2d_53">
      <g>
       <use style="stroke:#000000;stroke-width:0.8;" x="108" xlink:href="#m0d2af0e710" y="649.656785"/>
      </g>
     </g>
     <g id="text_46">
      <!-- 5 -->
      <g transform="translate(94.6375 653.456004)scale(0.1 -0.1)">
       <use xlink:href="#DejaVuSans-53"/>
      </g>
     </g>
    </g>
    <g id="ytick_30">
     <g id="line2d_54">
      <g>
       <use style="stroke:#000000;stroke-width:0.8;" x="108" xlink:href="#m0d2af0e710" y="628.388142"/>
      </g>
     </g>
     <g id="text_47">
      <!-- 6 -->
      <g transform="translate(94.6375 632.187361)scale(0.1 -0.1)">
       <use xlink:href="#DejaVuSans-54"/>
      </g>
     </g>
    </g>
    <g id="text_48">
     <!-- Cost [EUR/tCO2] -->
     <g transform="translate(88.557812 726.247996)rotate(-90)scale(0.1 -0.1)">
      <use xlink:href="#DejaVuSans-67"/>
      <use x="69.824219" xlink:href="#DejaVuSans-111"/>
      <use x="131.005859" xlink:href="#DejaVuSans-115"/>
      <use x="183.105469" xlink:href="#DejaVuSans-116"/>
      <use x="222.314453" xlink:href="#DejaVuSans-32"/>
      <use x="254.101562" xlink:href="#DejaVuSans-91"/>
      <use x="293.115234" xlink:href="#DejaVuSans-69"/>
      <use x="356.298828" xlink:href="#DejaVuSans-85"/>
      <use x="429.492188" xlink:href="#DejaVuSans-82"/>
      <use x="498.974609" xlink:href="#DejaVuSans-47"/>
      <use x="532.666016" xlink:href="#DejaVuSans-116"/>
      <use x="571.875" xlink:href="#DejaVuSans-67"/>
      <use x="641.699219" xlink:href="#DejaVuSans-79"/>
      <use x="720.410156" xlink:href="#DejaVuSans-50"/>
      <use x="784.033203" xlink:href="#DejaVuSans-93"/>
     </g>
    </g>
   </g>
   <g id="patch_89">
    <path d="M 108 756 
L 108 614.191304 
" style="fill:none;stroke:#000000;stroke-linecap:square;stroke-linejoin:miter;stroke-width:0.8;"/>
   </g>
   <g id="patch_90">
    <path d="M 777.6 756 
L 777.6 614.191304 
" style="fill:none;stroke:#000000;stroke-linecap:square;stroke-linejoin:miter;stroke-width:0.8;"/>
   </g>
   <g id="patch_91">
    <path d="M 108 756 
L 777.6 756 
" style="fill:none;stroke:#000000;stroke-linecap:square;stroke-linejoin:miter;stroke-width:0.8;"/>
   </g>
   <g id="patch_92">
    <path d="M 108 614.191304 
L 777.6 614.191304 
" style="fill:none;stroke:#000000;stroke-linecap:square;stroke-linejoin:miter;stroke-width:0.8;"/>
   </g>
   <g id="legend_4">
    <g id="patch_93">
     <path d="M 675.415625 651.547554 
L 770.6 651.547554 
Q 772.6 651.547554 772.6 649.547554 
L 772.6 621.191304 
Q 772.6 619.191304 770.6 619.191304 
L 675.415625 619.191304 
Q 673.415625 619.191304 673.415625 621.191304 
L 673.415625 649.547554 
Q 673.415625 651.547554 675.415625 651.547554 
z
" style="fill:#ffffff;opacity:0.8;stroke:#cccccc;stroke-linejoin:miter;"/>
    </g>
    <g id="patch_94">
     <path d="M 677.415625 630.789742 
L 697.415625 630.789742 
L 697.415625 623.789742 
L 677.415625 623.789742 
z
" style="fill:#a8322d;"/>
    </g>
    <g id="text_49">
     <!-- Conditioning -->
     <g transform="translate(705.415625 630.789742)scale(0.1 -0.1)">
      <use xlink:href="#DejaVuSans-67"/>
      <use x="69.824219" xlink:href="#DejaVuSans-111"/>
      <use x="131.005859" xlink:href="#DejaVuSans-110"/>
      <use x="194.384766" xlink:href="#DejaVuSans-100"/>
      <use x="257.861328" xlink:href="#DejaVuSans-105"/>
      <use x="285.644531" xlink:href="#DejaVuSans-116"/>
      <use x="324.853516" xlink:href="#DejaVuSans-105"/>
      <use x="352.636719" xlink:href="#DejaVuSans-111"/>
      <use x="413.818359" xlink:href="#DejaVuSans-110"/>
      <use x="477.197266" xlink:href="#DejaVuSans-105"/>
      <use x="504.980469" xlink:href="#DejaVuSans-110"/>
      <use x="568.359375" xlink:href="#DejaVuSans-103"/>
     </g>
    </g>
    <g id="patch_95">
     <path d="M 677.415625 645.467867 
L 697.415625 645.467867 
L 697.415625 638.467867 
L 677.415625 638.467867 
z
" style="fill:#edf8b1;"/>
    </g>
    <g id="text_50">
     <!-- Other -->
     <defs>
      <path d="M 54.890625 33.015625 
L 54.890625 0 
L 45.90625 0 
L 45.90625 32.71875 
Q 45.90625 40.484375 42.875 44.328125 
Q 39.84375 48.1875 33.796875 48.1875 
Q 26.515625 48.1875 22.3125 43.546875 
Q 18.109375 38.921875 18.109375 30.90625 
L 18.109375 0 
L 9.078125 0 
L 9.078125 75.984375 
L 18.109375 75.984375 
L 18.109375 46.1875 
Q 21.34375 51.125 25.703125 53.5625 
Q 30.078125 56 35.796875 56 
Q 45.21875 56 50.046875 50.171875 
Q 54.890625 44.34375 54.890625 33.015625 
z
" id="DejaVuSans-104"/>
     </defs>
     <g transform="translate(705.415625 645.467867)scale(0.1 -0.1)">
      <use xlink:href="#DejaVuSans-79"/>
      <use x="78.710938" xlink:href="#DejaVuSans-116"/>
      <use x="117.919922" xlink:href="#DejaVuSans-104"/>
      <use x="181.298828" xlink:href="#DejaVuSans-101"/>
      <use x="242.822266" xlink:href="#DejaVuSans-114"/>
     </g>
    </g>
   </g>
  </g>
 </g>
 <defs>
  <clipPath id="pf9c4bbdca6">
   <rect height="141.808696" width="669.6" x="108" y="103.68"/>
  </clipPath>
  <clipPath id="pc25f6def6b">
   <rect height="141.808696" width="669.6" x="108" y="273.850435"/>
  </clipPath>
  <clipPath id="p8c659c0c9a">
   <rect height="141.808696" width="669.6" x="108" y="444.02087"/>
  </clipPath>
  <clipPath id="p950a53b8ab">
   <rect height="141.808696" width="669.6" x="108" y="614.191304"/>
  </clipPath>
 </defs>
</svg>
